<mxfile host="Electron" agent="Mozilla/5.0 (Windows NT 10.0; Win64; x64) AppleWebKit/537.36 (KHTML, like Gecko) draw.io/27.0.9 Chrome/134.0.6998.205 Electron/35.4.0 Safari/537.36" version="27.0.9">
  <diagram name="Page-1" id="cXvxjSUKMSbzTmhN4gEt">
    <mxGraphModel dx="1572" dy="2201" grid="1" gridSize="10" guides="1" tooltips="1" connect="1" arrows="1" fold="1" page="1" pageScale="1" pageWidth="827" pageHeight="1169" math="0" shadow="0">
      <root>
        <mxCell id="0" />
        <mxCell id="1" parent="0" />
        <mxCell id="pp-GfB8wKx1P4uPkhwiW-345" value="" style="shape=tableRow;horizontal=0;startSize=0;swimlaneHead=0;swimlaneBody=0;fillColor=none;collapsible=0;dropTarget=0;points=[[0,0.5],[1,0.5]];portConstraint=eastwest;top=0;left=0;right=0;bottom=0;enumerate=0;metaEdit=0;movable=1;resizable=1;rotatable=1;deletable=1;editable=1;locked=0;connectable=1;" vertex="1" parent="1">
          <mxGeometry x="640" y="760" width="160.90476190476193" height="30" as="geometry" />
        </mxCell>
        <mxCell id="pp-GfB8wKx1P4uPkhwiW-401" value="" style="shape=tableRow;horizontal=0;startSize=0;swimlaneHead=0;swimlaneBody=0;fillColor=none;collapsible=0;dropTarget=0;points=[[0,0.5],[1,0.5]];portConstraint=eastwest;top=0;left=0;right=0;bottom=0;enumerate=0;metaEdit=0;movable=1;resizable=1;rotatable=1;deletable=1;editable=1;locked=0;connectable=1;" vertex="1" parent="1">
          <mxGeometry x="910" y="520" width="160" height="40" as="geometry" />
        </mxCell>
        <mxCell id="pp-GfB8wKx1P4uPkhwiW-2" value="" style="rounded=1;whiteSpace=wrap;html=1;fillColor=light-dark(#008A00,#FF99CC);fontColor=#ffffff;strokeColor=#00FFFF;container=1;movable=1;resizable=1;rotatable=1;deletable=1;editable=1;locked=0;connectable=1;" vertex="1" parent="1">
          <mxGeometry x="459.9990476190476" y="-156.25" width="955.0476190476192" height="752.5" as="geometry" />
        </mxCell>
        <mxCell id="pp-GfB8wKx1P4uPkhwiW-3" value="furmost_bank" style="shape=table;startSize=34;container=1;collapsible=1;childLayout=tableLayout;fixedRows=1;rowLines=0;fontStyle=1;align=center;resizeLast=1;enumerate=0;metaEdit=0;movable=1;resizable=1;rotatable=1;deletable=1;editable=1;locked=0;connectable=1;" vertex="1" parent="pp-GfB8wKx1P4uPkhwiW-2">
          <mxGeometry x="364.85" y="38.93" width="185.34" height="154" as="geometry" />
        </mxCell>
        <mxCell id="pp-GfB8wKx1P4uPkhwiW-4" value="" style="shape=tableRow;horizontal=0;startSize=0;swimlaneHead=0;swimlaneBody=0;fillColor=none;collapsible=0;dropTarget=0;points=[[0,0.5],[1,0.5]];portConstraint=eastwest;top=0;left=0;right=0;bottom=1;enumerate=0;metaEdit=0;movable=1;resizable=1;rotatable=1;deletable=1;editable=1;locked=0;connectable=1;" vertex="1" parent="pp-GfB8wKx1P4uPkhwiW-3">
          <mxGeometry y="34" width="185.34" height="30" as="geometry" />
        </mxCell>
        <mxCell id="pp-GfB8wKx1P4uPkhwiW-5" value="PK,FK" style="shape=partialRectangle;connectable=1;fillColor=none;top=0;left=0;bottom=0;right=0;fontStyle=1;overflow=hidden;whiteSpace=wrap;enumerate=0;metaEdit=0;movable=1;resizable=1;rotatable=1;deletable=1;editable=1;locked=0;" vertex="1" parent="pp-GfB8wKx1P4uPkhwiW-4">
          <mxGeometry width="50" height="30" as="geometry">
            <mxRectangle width="50" height="30" as="alternateBounds" />
          </mxGeometry>
        </mxCell>
        <mxCell id="pp-GfB8wKx1P4uPkhwiW-6" value="customerID" style="shape=partialRectangle;connectable=1;fillColor=none;top=0;left=0;bottom=0;right=0;align=left;spacingLeft=6;fontStyle=5;overflow=hidden;whiteSpace=wrap;enumerate=0;metaEdit=0;movable=1;resizable=1;rotatable=1;deletable=1;editable=1;locked=0;" vertex="1" parent="pp-GfB8wKx1P4uPkhwiW-4">
          <mxGeometry x="50" width="135.34" height="30" as="geometry">
            <mxRectangle width="135.34" height="30" as="alternateBounds" />
          </mxGeometry>
        </mxCell>
        <mxCell id="pp-GfB8wKx1P4uPkhwiW-7" value="" style="shape=tableRow;horizontal=0;startSize=0;swimlaneHead=0;swimlaneBody=0;fillColor=none;collapsible=0;dropTarget=0;points=[[0,0.5],[1,0.5]];portConstraint=eastwest;top=0;left=0;right=0;bottom=0;enumerate=0;metaEdit=0;movable=1;resizable=1;rotatable=1;deletable=1;editable=1;locked=0;connectable=1;" vertex="1" parent="pp-GfB8wKx1P4uPkhwiW-3">
          <mxGeometry y="64" width="185.34" height="30" as="geometry" />
        </mxCell>
        <mxCell id="pp-GfB8wKx1P4uPkhwiW-8" value="PK,FK" style="shape=partialRectangle;connectable=1;fillColor=none;top=0;left=0;bottom=0;right=0;editable=1;overflow=hidden;whiteSpace=wrap;enumerate=0;metaEdit=0;movable=1;resizable=1;rotatable=1;deletable=1;locked=0;" vertex="1" parent="pp-GfB8wKx1P4uPkhwiW-7">
          <mxGeometry width="50" height="30" as="geometry">
            <mxRectangle width="50" height="30" as="alternateBounds" />
          </mxGeometry>
        </mxCell>
        <mxCell id="pp-GfB8wKx1P4uPkhwiW-9" value="transactionID" style="shape=partialRectangle;connectable=1;fillColor=none;top=0;left=0;bottom=0;right=0;align=left;spacingLeft=6;overflow=hidden;whiteSpace=wrap;enumerate=0;metaEdit=0;movable=1;resizable=1;rotatable=1;deletable=1;editable=1;locked=0;" vertex="1" parent="pp-GfB8wKx1P4uPkhwiW-7">
          <mxGeometry x="50" width="135.34" height="30" as="geometry">
            <mxRectangle width="135.34" height="30" as="alternateBounds" />
          </mxGeometry>
        </mxCell>
        <mxCell id="pp-GfB8wKx1P4uPkhwiW-10" value="" style="shape=tableRow;horizontal=0;startSize=0;swimlaneHead=0;swimlaneBody=0;fillColor=none;collapsible=0;dropTarget=0;points=[[0,0.5],[1,0.5]];portConstraint=eastwest;top=0;left=0;right=0;bottom=0;enumerate=0;metaEdit=0;movable=1;resizable=1;rotatable=1;deletable=1;editable=1;locked=0;connectable=1;" vertex="1" parent="pp-GfB8wKx1P4uPkhwiW-3">
          <mxGeometry y="94" width="185.34" height="30" as="geometry" />
        </mxCell>
        <mxCell id="pp-GfB8wKx1P4uPkhwiW-11" value="PK,FK" style="shape=partialRectangle;connectable=1;fillColor=none;top=0;left=0;bottom=0;right=0;editable=1;overflow=hidden;whiteSpace=wrap;enumerate=0;metaEdit=0;movable=1;resizable=1;rotatable=1;deletable=1;locked=0;" vertex="1" parent="pp-GfB8wKx1P4uPkhwiW-10">
          <mxGeometry width="50" height="30" as="geometry">
            <mxRectangle width="50" height="30" as="alternateBounds" />
          </mxGeometry>
        </mxCell>
        <mxCell id="pp-GfB8wKx1P4uPkhwiW-12" value="loanID" style="shape=partialRectangle;connectable=1;fillColor=none;top=0;left=0;bottom=0;right=0;align=left;spacingLeft=6;overflow=hidden;whiteSpace=wrap;enumerate=0;metaEdit=0;movable=1;resizable=1;rotatable=1;deletable=1;editable=1;locked=0;" vertex="1" parent="pp-GfB8wKx1P4uPkhwiW-10">
          <mxGeometry x="50" width="135.34" height="30" as="geometry">
            <mxRectangle width="135.34" height="30" as="alternateBounds" />
          </mxGeometry>
        </mxCell>
        <mxCell id="pp-GfB8wKx1P4uPkhwiW-13" value="" style="shape=tableRow;horizontal=0;startSize=0;swimlaneHead=0;swimlaneBody=0;fillColor=none;collapsible=0;dropTarget=0;points=[[0,0.5],[1,0.5]];portConstraint=eastwest;top=0;left=0;right=0;bottom=0;enumerate=0;metaEdit=0;movable=1;resizable=1;rotatable=1;deletable=1;editable=1;locked=0;connectable=1;" vertex="1" parent="pp-GfB8wKx1P4uPkhwiW-3">
          <mxGeometry y="124" width="185.34" height="30" as="geometry" />
        </mxCell>
        <mxCell id="pp-GfB8wKx1P4uPkhwiW-14" value="PK,FK" style="shape=partialRectangle;connectable=1;fillColor=none;top=0;left=0;bottom=0;right=0;editable=1;overflow=hidden;whiteSpace=wrap;enumerate=0;metaEdit=0;movable=1;resizable=1;rotatable=1;deletable=1;locked=0;" vertex="1" parent="pp-GfB8wKx1P4uPkhwiW-13">
          <mxGeometry width="50" height="30" as="geometry">
            <mxRectangle width="50" height="30" as="alternateBounds" />
          </mxGeometry>
        </mxCell>
        <mxCell id="pp-GfB8wKx1P4uPkhwiW-15" value="accountID" style="shape=partialRectangle;connectable=1;fillColor=none;top=0;left=0;bottom=0;right=0;align=left;spacingLeft=6;overflow=hidden;whiteSpace=wrap;enumerate=0;metaEdit=0;movable=1;resizable=1;rotatable=1;deletable=1;editable=1;locked=0;" vertex="1" parent="pp-GfB8wKx1P4uPkhwiW-13">
          <mxGeometry x="50" width="135.34" height="30" as="geometry">
            <mxRectangle width="135.34" height="30" as="alternateBounds" />
          </mxGeometry>
        </mxCell>
        <mxCell id="pp-GfB8wKx1P4uPkhwiW-22" value="transaction_dm" style="shape=table;startSize=27;container=1;collapsible=1;childLayout=tableLayout;fixedRows=1;rowLines=1;fontStyle=1;align=center;resizeLast=1;html=1;enumerate=0;metaEdit=0;movable=1;resizable=1;rotatable=1;deletable=1;editable=1;locked=0;connectable=1;perimeterSpacing=0;spacingBottom=-1;" vertex="1" parent="pp-GfB8wKx1P4uPkhwiW-2">
          <mxGeometry x="700" y="68.57" width="153.71" height="94.7100000000001" as="geometry" />
        </mxCell>
        <mxCell id="pp-GfB8wKx1P4uPkhwiW-23" value="" style="shape=tableRow;horizontal=0;startSize=0;swimlaneHead=0;swimlaneBody=0;fillColor=none;collapsible=0;dropTarget=0;points=[[0,0.5],[1,0.5]];portConstraint=eastwest;top=0;left=0;right=0;bottom=1;enumerate=0;metaEdit=0;movable=1;resizable=1;rotatable=1;deletable=1;editable=1;locked=0;connectable=1;" vertex="1" parent="pp-GfB8wKx1P4uPkhwiW-22">
          <mxGeometry y="27" width="153.71" height="30" as="geometry" />
        </mxCell>
        <mxCell id="pp-GfB8wKx1P4uPkhwiW-24" value="PK" style="shape=partialRectangle;connectable=1;fillColor=none;top=0;left=0;bottom=0;right=0;fontStyle=1;overflow=hidden;whiteSpace=wrap;enumerate=0;metaEdit=0;movable=1;resizable=1;rotatable=1;deletable=1;editable=1;locked=0;" vertex="1" parent="pp-GfB8wKx1P4uPkhwiW-23">
          <mxGeometry width="30" height="30" as="geometry">
            <mxRectangle width="30" height="30" as="alternateBounds" />
          </mxGeometry>
        </mxCell>
        <mxCell id="pp-GfB8wKx1P4uPkhwiW-25" value="transactionID" style="shape=partialRectangle;connectable=1;fillColor=none;top=0;left=0;bottom=0;right=0;align=left;spacingLeft=6;fontStyle=5;overflow=hidden;whiteSpace=wrap;html=1;enumerate=0;metaEdit=0;movable=1;resizable=1;rotatable=1;deletable=1;editable=1;locked=0;strokeWidth=1;" vertex="1" parent="pp-GfB8wKx1P4uPkhwiW-23">
          <mxGeometry x="30" width="123.71000000000001" height="30" as="geometry">
            <mxRectangle width="123.71000000000001" height="30" as="alternateBounds" />
          </mxGeometry>
        </mxCell>
        <mxCell id="pp-GfB8wKx1P4uPkhwiW-26" value="" style="shape=tableRow;horizontal=0;startSize=0;swimlaneHead=0;swimlaneBody=0;fillColor=none;collapsible=0;dropTarget=0;points=[[0,0.5],[1,0.5]];portConstraint=eastwest;top=0;left=0;right=0;bottom=0;enumerate=0;metaEdit=0;movable=1;resizable=1;rotatable=1;deletable=1;editable=1;locked=0;connectable=1;" vertex="1" parent="pp-GfB8wKx1P4uPkhwiW-22">
          <mxGeometry y="57" width="153.71" height="30" as="geometry" />
        </mxCell>
        <mxCell id="pp-GfB8wKx1P4uPkhwiW-27" value="" style="shape=partialRectangle;connectable=1;fillColor=none;top=0;left=0;bottom=0;right=0;editable=1;overflow=hidden;whiteSpace=wrap;enumerate=0;metaEdit=0;movable=1;resizable=1;rotatable=1;deletable=1;locked=0;" vertex="1" parent="pp-GfB8wKx1P4uPkhwiW-26">
          <mxGeometry width="30" height="30" as="geometry">
            <mxRectangle width="30" height="30" as="alternateBounds" />
          </mxGeometry>
        </mxCell>
        <mxCell id="pp-GfB8wKx1P4uPkhwiW-28" value="transaction_type" style="shape=partialRectangle;connectable=1;fillColor=none;top=0;left=0;bottom=0;right=0;align=left;spacingLeft=6;overflow=hidden;whiteSpace=wrap;html=1;enumerate=0;metaEdit=0;movable=1;resizable=1;rotatable=1;deletable=1;editable=1;locked=0;" vertex="1" parent="pp-GfB8wKx1P4uPkhwiW-26">
          <mxGeometry x="30" width="123.71000000000001" height="30" as="geometry">
            <mxRectangle width="123.71000000000001" height="30" as="alternateBounds" />
          </mxGeometry>
        </mxCell>
        <mxCell id="pp-GfB8wKx1P4uPkhwiW-33" value="accounts" style="shape=table;startSize=30;container=1;collapsible=1;childLayout=tableLayout;fixedRows=1;rowLines=0;fontStyle=1;align=center;resizeLast=1;enumerate=0;metaEdit=0;movable=1;resizable=1;rotatable=1;deletable=1;editable=1;locked=0;connectable=1;" vertex="1" parent="pp-GfB8wKx1P4uPkhwiW-2">
          <mxGeometry x="50" y="454.09" width="154.67" height="152" as="geometry" />
        </mxCell>
        <mxCell id="pp-GfB8wKx1P4uPkhwiW-34" value="" style="shape=tableRow;horizontal=0;startSize=0;swimlaneHead=0;swimlaneBody=0;fillColor=none;collapsible=0;dropTarget=0;points=[[0,0.5],[1,0.5]];portConstraint=eastwest;top=0;left=0;right=0;bottom=1;enumerate=0;metaEdit=0;movable=1;resizable=1;rotatable=1;deletable=1;editable=1;locked=0;connectable=1;" vertex="1" parent="pp-GfB8wKx1P4uPkhwiW-33">
          <mxGeometry y="30" width="154.67" height="30" as="geometry" />
        </mxCell>
        <mxCell id="pp-GfB8wKx1P4uPkhwiW-35" value="PK" style="shape=partialRectangle;connectable=1;fillColor=none;top=0;left=0;bottom=0;right=0;fontStyle=1;overflow=hidden;whiteSpace=wrap;enumerate=0;metaEdit=0;movable=1;resizable=1;rotatable=1;deletable=1;editable=1;locked=0;" vertex="1" parent="pp-GfB8wKx1P4uPkhwiW-34">
          <mxGeometry width="30" height="30" as="geometry">
            <mxRectangle width="30" height="30" as="alternateBounds" />
          </mxGeometry>
        </mxCell>
        <mxCell id="pp-GfB8wKx1P4uPkhwiW-36" value="accountsID" style="shape=partialRectangle;connectable=1;fillColor=none;top=0;left=0;bottom=0;right=0;align=left;spacingLeft=6;fontStyle=5;overflow=hidden;whiteSpace=wrap;enumerate=0;metaEdit=0;movable=1;resizable=1;rotatable=1;deletable=1;editable=1;locked=0;" vertex="1" parent="pp-GfB8wKx1P4uPkhwiW-34">
          <mxGeometry x="30" width="124.66999999999999" height="30" as="geometry">
            <mxRectangle width="124.66999999999999" height="30" as="alternateBounds" />
          </mxGeometry>
        </mxCell>
        <mxCell id="pp-GfB8wKx1P4uPkhwiW-37" value="" style="shape=tableRow;horizontal=0;startSize=0;swimlaneHead=0;swimlaneBody=0;fillColor=none;collapsible=0;dropTarget=0;points=[[0,0.5],[1,0.5]];portConstraint=eastwest;top=0;left=0;right=0;bottom=0;enumerate=0;metaEdit=0;movable=1;resizable=1;rotatable=1;deletable=1;editable=1;locked=0;connectable=1;" vertex="1" parent="pp-GfB8wKx1P4uPkhwiW-33">
          <mxGeometry y="60" width="154.67" height="30" as="geometry" />
        </mxCell>
        <mxCell id="pp-GfB8wKx1P4uPkhwiW-38" value="" style="shape=partialRectangle;connectable=1;fillColor=none;top=0;left=0;bottom=0;right=0;editable=1;overflow=hidden;whiteSpace=wrap;enumerate=0;metaEdit=0;movable=1;resizable=1;rotatable=1;deletable=1;locked=0;" vertex="1" parent="pp-GfB8wKx1P4uPkhwiW-37">
          <mxGeometry width="30" height="30" as="geometry">
            <mxRectangle width="30" height="30" as="alternateBounds" />
          </mxGeometry>
        </mxCell>
        <mxCell id="pp-GfB8wKx1P4uPkhwiW-39" value="aacountType" style="shape=partialRectangle;connectable=1;fillColor=none;top=0;left=0;bottom=0;right=0;align=left;spacingLeft=6;overflow=hidden;whiteSpace=wrap;enumerate=0;metaEdit=0;movable=1;resizable=1;rotatable=1;deletable=1;editable=1;locked=0;" vertex="1" parent="pp-GfB8wKx1P4uPkhwiW-37">
          <mxGeometry x="30" width="124.66999999999999" height="30" as="geometry">
            <mxRectangle width="124.66999999999999" height="30" as="alternateBounds" />
          </mxGeometry>
        </mxCell>
        <mxCell id="pp-GfB8wKx1P4uPkhwiW-281" value="" style="shape=tableRow;horizontal=0;startSize=0;swimlaneHead=0;swimlaneBody=0;fillColor=none;collapsible=0;dropTarget=0;points=[[0,0.5],[1,0.5]];portConstraint=eastwest;top=0;left=0;right=0;bottom=0;enumerate=0;metaEdit=0;movable=1;resizable=1;rotatable=1;deletable=1;editable=1;locked=0;connectable=1;" vertex="1" parent="pp-GfB8wKx1P4uPkhwiW-33">
          <mxGeometry y="90" width="154.67" height="30" as="geometry" />
        </mxCell>
        <mxCell id="pp-GfB8wKx1P4uPkhwiW-282" value="" style="shape=partialRectangle;connectable=1;fillColor=none;top=0;left=0;bottom=0;right=0;editable=1;overflow=hidden;whiteSpace=wrap;enumerate=0;metaEdit=0;movable=1;resizable=1;rotatable=1;deletable=1;locked=0;" vertex="1" parent="pp-GfB8wKx1P4uPkhwiW-281">
          <mxGeometry width="30" height="30" as="geometry">
            <mxRectangle width="30" height="30" as="alternateBounds" />
          </mxGeometry>
        </mxCell>
        <mxCell id="pp-GfB8wKx1P4uPkhwiW-283" value="balance" style="shape=partialRectangle;connectable=1;fillColor=none;top=0;left=0;bottom=0;right=0;align=left;spacingLeft=6;overflow=hidden;whiteSpace=wrap;enumerate=0;metaEdit=0;movable=1;resizable=1;rotatable=1;deletable=1;editable=1;locked=0;" vertex="1" parent="pp-GfB8wKx1P4uPkhwiW-281">
          <mxGeometry x="30" width="124.66999999999999" height="30" as="geometry">
            <mxRectangle width="124.66999999999999" height="30" as="alternateBounds" />
          </mxGeometry>
        </mxCell>
        <mxCell id="pp-GfB8wKx1P4uPkhwiW-284" value="" style="shape=tableRow;horizontal=0;startSize=0;swimlaneHead=0;swimlaneBody=0;fillColor=none;collapsible=0;dropTarget=0;points=[[0,0.5],[1,0.5]];portConstraint=eastwest;top=0;left=0;right=0;bottom=0;enumerate=0;metaEdit=0;movable=1;resizable=1;rotatable=1;deletable=1;editable=1;locked=0;connectable=1;" vertex="1" parent="pp-GfB8wKx1P4uPkhwiW-33">
          <mxGeometry y="120" width="154.67" height="32" as="geometry" />
        </mxCell>
        <mxCell id="pp-GfB8wKx1P4uPkhwiW-285" value="" style="shape=partialRectangle;connectable=1;fillColor=none;top=0;left=0;bottom=0;right=0;editable=1;overflow=hidden;whiteSpace=wrap;enumerate=0;metaEdit=0;movable=1;resizable=1;rotatable=1;deletable=1;locked=0;" vertex="1" parent="pp-GfB8wKx1P4uPkhwiW-284">
          <mxGeometry width="30" height="32" as="geometry">
            <mxRectangle width="30" height="32" as="alternateBounds" />
          </mxGeometry>
        </mxCell>
        <mxCell id="pp-GfB8wKx1P4uPkhwiW-286" value="openingDate_ID" style="shape=partialRectangle;connectable=1;fillColor=none;top=0;left=0;bottom=0;right=0;align=left;spacingLeft=6;overflow=hidden;whiteSpace=wrap;enumerate=0;metaEdit=0;movable=1;resizable=1;rotatable=1;deletable=1;editable=1;locked=0;" vertex="1" parent="pp-GfB8wKx1P4uPkhwiW-284">
          <mxGeometry x="30" width="124.66999999999999" height="32" as="geometry">
            <mxRectangle width="124.66999999999999" height="32" as="alternateBounds" />
          </mxGeometry>
        </mxCell>
        <mxCell id="pp-GfB8wKx1P4uPkhwiW-60" value="customer" style="shape=table;startSize=30;container=1;collapsible=1;childLayout=tableLayout;fixedRows=1;rowLines=0;fontStyle=1;align=center;resizeLast=1;enumerate=0;metaEdit=0;movable=1;resizable=1;rotatable=1;deletable=1;editable=1;locked=0;connectable=1;" vertex="1" parent="pp-GfB8wKx1P4uPkhwiW-2">
          <mxGeometry x="60" y="38.93" width="160" height="201.07" as="geometry" />
        </mxCell>
        <mxCell id="pp-GfB8wKx1P4uPkhwiW-61" value="" style="shape=tableRow;horizontal=0;startSize=0;swimlaneHead=0;swimlaneBody=0;fillColor=none;collapsible=0;dropTarget=0;points=[[0,0.5],[1,0.5]];portConstraint=eastwest;top=0;left=0;right=0;bottom=1;enumerate=0;metaEdit=0;movable=1;resizable=1;rotatable=1;deletable=1;editable=1;locked=0;connectable=1;" vertex="1" parent="pp-GfB8wKx1P4uPkhwiW-60">
          <mxGeometry y="30" width="160" height="30" as="geometry" />
        </mxCell>
        <mxCell id="pp-GfB8wKx1P4uPkhwiW-62" value="PK" style="shape=partialRectangle;connectable=1;fillColor=none;top=0;left=0;bottom=0;right=0;fontStyle=1;overflow=hidden;whiteSpace=wrap;enumerate=0;metaEdit=0;movable=1;resizable=1;rotatable=1;deletable=1;editable=1;locked=0;" vertex="1" parent="pp-GfB8wKx1P4uPkhwiW-61">
          <mxGeometry width="30" height="30" as="geometry">
            <mxRectangle width="30" height="30" as="alternateBounds" />
          </mxGeometry>
        </mxCell>
        <mxCell id="pp-GfB8wKx1P4uPkhwiW-63" value="CustomerID" style="shape=partialRectangle;connectable=1;fillColor=none;top=0;left=0;bottom=0;right=0;align=left;spacingLeft=6;fontStyle=5;overflow=hidden;whiteSpace=wrap;enumerate=0;metaEdit=0;movable=1;resizable=1;rotatable=1;deletable=1;editable=1;locked=0;" vertex="1" parent="pp-GfB8wKx1P4uPkhwiW-61">
          <mxGeometry x="30" width="130" height="30" as="geometry">
            <mxRectangle width="130" height="30" as="alternateBounds" />
          </mxGeometry>
        </mxCell>
        <mxCell id="pp-GfB8wKx1P4uPkhwiW-64" value="" style="shape=tableRow;horizontal=0;startSize=0;swimlaneHead=0;swimlaneBody=0;fillColor=none;collapsible=0;dropTarget=0;points=[[0,0.5],[1,0.5]];portConstraint=eastwest;top=0;left=0;right=0;bottom=0;enumerate=0;metaEdit=0;movable=1;resizable=1;rotatable=1;deletable=1;editable=1;locked=0;connectable=1;" vertex="1" parent="pp-GfB8wKx1P4uPkhwiW-60">
          <mxGeometry y="60" width="160" height="30" as="geometry" />
        </mxCell>
        <mxCell id="pp-GfB8wKx1P4uPkhwiW-65" value="" style="shape=partialRectangle;connectable=1;fillColor=none;top=0;left=0;bottom=0;right=0;editable=1;overflow=hidden;whiteSpace=wrap;enumerate=0;metaEdit=0;movable=1;resizable=1;rotatable=1;deletable=1;locked=0;" vertex="1" parent="pp-GfB8wKx1P4uPkhwiW-64">
          <mxGeometry width="30" height="30" as="geometry">
            <mxRectangle width="30" height="30" as="alternateBounds" />
          </mxGeometry>
        </mxCell>
        <mxCell id="pp-GfB8wKx1P4uPkhwiW-66" value="first_name" style="shape=partialRectangle;connectable=1;fillColor=none;top=0;left=0;bottom=0;right=0;align=left;spacingLeft=6;overflow=hidden;whiteSpace=wrap;enumerate=0;metaEdit=0;movable=1;resizable=1;rotatable=1;deletable=1;editable=1;locked=0;" vertex="1" parent="pp-GfB8wKx1P4uPkhwiW-64">
          <mxGeometry x="30" width="130" height="30" as="geometry">
            <mxRectangle width="130" height="30" as="alternateBounds" />
          </mxGeometry>
        </mxCell>
        <mxCell id="pp-GfB8wKx1P4uPkhwiW-67" value="" style="shape=tableRow;horizontal=0;startSize=0;swimlaneHead=0;swimlaneBody=0;fillColor=none;collapsible=0;dropTarget=0;points=[[0,0.5],[1,0.5]];portConstraint=eastwest;top=0;left=0;right=0;bottom=0;enumerate=0;metaEdit=0;movable=1;resizable=1;rotatable=1;deletable=1;editable=1;locked=0;connectable=1;" vertex="1" parent="pp-GfB8wKx1P4uPkhwiW-60">
          <mxGeometry y="90" width="160" height="30" as="geometry" />
        </mxCell>
        <mxCell id="pp-GfB8wKx1P4uPkhwiW-68" value="" style="shape=partialRectangle;connectable=1;fillColor=none;top=0;left=0;bottom=0;right=0;editable=1;overflow=hidden;whiteSpace=wrap;enumerate=0;metaEdit=0;movable=1;resizable=1;rotatable=1;deletable=1;locked=0;" vertex="1" parent="pp-GfB8wKx1P4uPkhwiW-67">
          <mxGeometry width="30" height="30" as="geometry">
            <mxRectangle width="30" height="30" as="alternateBounds" />
          </mxGeometry>
        </mxCell>
        <mxCell id="pp-GfB8wKx1P4uPkhwiW-69" value="last_name" style="shape=partialRectangle;connectable=1;fillColor=none;top=0;left=0;bottom=0;right=0;align=left;spacingLeft=6;overflow=hidden;whiteSpace=wrap;enumerate=0;metaEdit=0;movable=1;resizable=1;rotatable=1;deletable=1;editable=1;locked=0;" vertex="1" parent="pp-GfB8wKx1P4uPkhwiW-67">
          <mxGeometry x="30" width="130" height="30" as="geometry">
            <mxRectangle width="130" height="30" as="alternateBounds" />
          </mxGeometry>
        </mxCell>
        <mxCell id="pp-GfB8wKx1P4uPkhwiW-70" value="" style="shape=tableRow;horizontal=0;startSize=0;swimlaneHead=0;swimlaneBody=0;fillColor=none;collapsible=0;dropTarget=0;points=[[0,0.5],[1,0.5]];portConstraint=eastwest;top=0;left=0;right=0;bottom=0;enumerate=0;metaEdit=0;movable=1;resizable=1;rotatable=1;deletable=1;editable=1;locked=0;connectable=1;" vertex="1" parent="pp-GfB8wKx1P4uPkhwiW-60">
          <mxGeometry y="120" width="160" height="40" as="geometry" />
        </mxCell>
        <mxCell id="pp-GfB8wKx1P4uPkhwiW-71" value="" style="shape=partialRectangle;connectable=1;fillColor=none;top=0;left=0;bottom=0;right=0;editable=1;overflow=hidden;whiteSpace=wrap;enumerate=0;metaEdit=0;movable=1;resizable=1;rotatable=1;deletable=1;locked=0;" vertex="1" parent="pp-GfB8wKx1P4uPkhwiW-70">
          <mxGeometry width="30" height="40" as="geometry">
            <mxRectangle width="30" height="40" as="alternateBounds" />
          </mxGeometry>
        </mxCell>
        <mxCell id="pp-GfB8wKx1P4uPkhwiW-72" value="email" style="shape=partialRectangle;connectable=1;fillColor=none;top=0;left=0;bottom=0;right=0;align=left;spacingLeft=6;overflow=hidden;whiteSpace=wrap;enumerate=0;metaEdit=0;movable=1;resizable=1;rotatable=1;deletable=1;editable=1;locked=0;" vertex="1" parent="pp-GfB8wKx1P4uPkhwiW-70">
          <mxGeometry x="30" width="130" height="40" as="geometry">
            <mxRectangle width="130" height="40" as="alternateBounds" />
          </mxGeometry>
        </mxCell>
        <mxCell id="pp-GfB8wKx1P4uPkhwiW-84" value="" style="shape=tableRow;horizontal=0;startSize=0;swimlaneHead=0;swimlaneBody=0;fillColor=none;collapsible=0;dropTarget=0;points=[[0,0.5],[1,0.5]];portConstraint=eastwest;top=0;left=0;right=0;bottom=0;enumerate=0;metaEdit=0;movable=1;resizable=1;rotatable=1;deletable=1;editable=1;locked=0;connectable=1;" vertex="1" parent="pp-GfB8wKx1P4uPkhwiW-60">
          <mxGeometry y="160" width="160" height="40" as="geometry" />
        </mxCell>
        <mxCell id="pp-GfB8wKx1P4uPkhwiW-85" value="" style="shape=partialRectangle;connectable=1;fillColor=none;top=0;left=0;bottom=0;right=0;editable=1;overflow=hidden;whiteSpace=wrap;enumerate=0;metaEdit=0;movable=1;resizable=1;rotatable=1;deletable=1;locked=0;" vertex="1" parent="pp-GfB8wKx1P4uPkhwiW-84">
          <mxGeometry width="30" height="40" as="geometry">
            <mxRectangle width="30" height="40" as="alternateBounds" />
          </mxGeometry>
        </mxCell>
        <mxCell id="pp-GfB8wKx1P4uPkhwiW-86" value="phone" style="shape=partialRectangle;connectable=1;fillColor=none;top=0;left=0;bottom=0;right=0;align=left;spacingLeft=6;overflow=hidden;whiteSpace=wrap;enumerate=0;metaEdit=0;movable=1;resizable=1;rotatable=1;deletable=1;editable=1;locked=0;" vertex="1" parent="pp-GfB8wKx1P4uPkhwiW-84">
          <mxGeometry x="30" width="130" height="40" as="geometry">
            <mxRectangle width="130" height="40" as="alternateBounds" />
          </mxGeometry>
        </mxCell>
        <mxCell id="pp-GfB8wKx1P4uPkhwiW-368" value="date" style="shape=table;startSize=30;container=1;collapsible=1;childLayout=tableLayout;fixedRows=1;rowLines=0;fontStyle=1;align=center;resizeLast=1;enumerate=0;metaEdit=0;movable=1;resizable=1;rotatable=1;deletable=1;editable=1;locked=0;connectable=1;" vertex="1" parent="pp-GfB8wKx1P4uPkhwiW-2">
          <mxGeometry x="380.00095238095236" y="350" width="160" height="201.07" as="geometry" />
        </mxCell>
        <mxCell id="pp-GfB8wKx1P4uPkhwiW-369" value="" style="shape=tableRow;horizontal=0;startSize=0;swimlaneHead=0;swimlaneBody=0;fillColor=none;collapsible=0;dropTarget=0;points=[[0,0.5],[1,0.5]];portConstraint=eastwest;top=0;left=0;right=0;bottom=1;enumerate=0;metaEdit=0;movable=1;resizable=1;rotatable=1;deletable=1;editable=1;locked=0;connectable=1;" vertex="1" parent="pp-GfB8wKx1P4uPkhwiW-368">
          <mxGeometry y="30" width="160" height="30" as="geometry" />
        </mxCell>
        <mxCell id="pp-GfB8wKx1P4uPkhwiW-370" value="PK" style="shape=partialRectangle;connectable=1;fillColor=none;top=0;left=0;bottom=0;right=0;fontStyle=1;overflow=hidden;whiteSpace=wrap;enumerate=0;metaEdit=0;movable=1;resizable=1;rotatable=1;deletable=1;editable=1;locked=0;" vertex="1" parent="pp-GfB8wKx1P4uPkhwiW-369">
          <mxGeometry width="30" height="30" as="geometry">
            <mxRectangle width="30" height="30" as="alternateBounds" />
          </mxGeometry>
        </mxCell>
        <mxCell id="pp-GfB8wKx1P4uPkhwiW-371" value="dateID" style="shape=partialRectangle;connectable=1;fillColor=none;top=0;left=0;bottom=0;right=0;align=left;spacingLeft=6;fontStyle=5;overflow=hidden;whiteSpace=wrap;enumerate=0;metaEdit=0;movable=1;resizable=1;rotatable=1;deletable=1;editable=1;locked=0;" vertex="1" parent="pp-GfB8wKx1P4uPkhwiW-369">
          <mxGeometry x="30" width="130" height="30" as="geometry">
            <mxRectangle width="130" height="30" as="alternateBounds" />
          </mxGeometry>
        </mxCell>
        <mxCell id="pp-GfB8wKx1P4uPkhwiW-372" value="" style="shape=tableRow;horizontal=0;startSize=0;swimlaneHead=0;swimlaneBody=0;fillColor=none;collapsible=0;dropTarget=0;points=[[0,0.5],[1,0.5]];portConstraint=eastwest;top=0;left=0;right=0;bottom=0;enumerate=0;metaEdit=0;movable=1;resizable=1;rotatable=1;deletable=1;editable=1;locked=0;connectable=1;" vertex="1" parent="pp-GfB8wKx1P4uPkhwiW-368">
          <mxGeometry y="60" width="160" height="30" as="geometry" />
        </mxCell>
        <mxCell id="pp-GfB8wKx1P4uPkhwiW-373" value="" style="shape=partialRectangle;connectable=1;fillColor=none;top=0;left=0;bottom=0;right=0;editable=1;overflow=hidden;whiteSpace=wrap;enumerate=0;metaEdit=0;movable=1;resizable=1;rotatable=1;deletable=1;locked=0;" vertex="1" parent="pp-GfB8wKx1P4uPkhwiW-372">
          <mxGeometry width="30" height="30" as="geometry">
            <mxRectangle width="30" height="30" as="alternateBounds" />
          </mxGeometry>
        </mxCell>
        <mxCell id="pp-GfB8wKx1P4uPkhwiW-374" value="date" style="shape=partialRectangle;connectable=1;fillColor=none;top=0;left=0;bottom=0;right=0;align=left;spacingLeft=6;overflow=hidden;whiteSpace=wrap;enumerate=0;metaEdit=0;movable=1;resizable=1;rotatable=1;deletable=1;editable=1;locked=0;" vertex="1" parent="pp-GfB8wKx1P4uPkhwiW-372">
          <mxGeometry x="30" width="130" height="30" as="geometry">
            <mxRectangle width="130" height="30" as="alternateBounds" />
          </mxGeometry>
        </mxCell>
        <mxCell id="pp-GfB8wKx1P4uPkhwiW-375" value="" style="shape=tableRow;horizontal=0;startSize=0;swimlaneHead=0;swimlaneBody=0;fillColor=none;collapsible=0;dropTarget=0;points=[[0,0.5],[1,0.5]];portConstraint=eastwest;top=0;left=0;right=0;bottom=0;enumerate=0;metaEdit=0;movable=1;resizable=1;rotatable=1;deletable=1;editable=1;locked=0;connectable=1;" vertex="1" parent="pp-GfB8wKx1P4uPkhwiW-368">
          <mxGeometry y="90" width="160" height="30" as="geometry" />
        </mxCell>
        <mxCell id="pp-GfB8wKx1P4uPkhwiW-376" value="" style="shape=partialRectangle;connectable=1;fillColor=none;top=0;left=0;bottom=0;right=0;editable=1;overflow=hidden;whiteSpace=wrap;enumerate=0;metaEdit=0;movable=1;resizable=1;rotatable=1;deletable=1;locked=0;" vertex="1" parent="pp-GfB8wKx1P4uPkhwiW-375">
          <mxGeometry width="30" height="30" as="geometry">
            <mxRectangle width="30" height="30" as="alternateBounds" />
          </mxGeometry>
        </mxCell>
        <mxCell id="pp-GfB8wKx1P4uPkhwiW-377" value="day" style="shape=partialRectangle;connectable=1;fillColor=none;top=0;left=0;bottom=0;right=0;align=left;spacingLeft=6;overflow=hidden;whiteSpace=wrap;enumerate=0;metaEdit=0;movable=1;resizable=1;rotatable=1;deletable=1;editable=1;locked=0;" vertex="1" parent="pp-GfB8wKx1P4uPkhwiW-375">
          <mxGeometry x="30" width="130" height="30" as="geometry">
            <mxRectangle width="130" height="30" as="alternateBounds" />
          </mxGeometry>
        </mxCell>
        <mxCell id="pp-GfB8wKx1P4uPkhwiW-378" value="" style="shape=tableRow;horizontal=0;startSize=0;swimlaneHead=0;swimlaneBody=0;fillColor=none;collapsible=0;dropTarget=0;points=[[0,0.5],[1,0.5]];portConstraint=eastwest;top=0;left=0;right=0;bottom=0;enumerate=0;metaEdit=0;movable=1;resizable=1;rotatable=1;deletable=1;editable=1;locked=0;connectable=1;" vertex="1" parent="pp-GfB8wKx1P4uPkhwiW-368">
          <mxGeometry y="120" width="160" height="40" as="geometry" />
        </mxCell>
        <mxCell id="pp-GfB8wKx1P4uPkhwiW-379" value="" style="shape=partialRectangle;connectable=1;fillColor=none;top=0;left=0;bottom=0;right=0;editable=1;overflow=hidden;whiteSpace=wrap;enumerate=0;metaEdit=0;movable=1;resizable=1;rotatable=1;deletable=1;locked=0;" vertex="1" parent="pp-GfB8wKx1P4uPkhwiW-378">
          <mxGeometry width="30" height="40" as="geometry">
            <mxRectangle width="30" height="40" as="alternateBounds" />
          </mxGeometry>
        </mxCell>
        <mxCell id="pp-GfB8wKx1P4uPkhwiW-380" value="month" style="shape=partialRectangle;connectable=1;fillColor=none;top=0;left=0;bottom=0;right=0;align=left;spacingLeft=6;overflow=hidden;whiteSpace=wrap;enumerate=0;metaEdit=0;movable=1;resizable=1;rotatable=1;deletable=1;editable=1;locked=0;" vertex="1" parent="pp-GfB8wKx1P4uPkhwiW-378">
          <mxGeometry x="30" width="130" height="40" as="geometry">
            <mxRectangle width="130" height="40" as="alternateBounds" />
          </mxGeometry>
        </mxCell>
        <mxCell id="pp-GfB8wKx1P4uPkhwiW-381" value="" style="shape=tableRow;horizontal=0;startSize=0;swimlaneHead=0;swimlaneBody=0;fillColor=none;collapsible=0;dropTarget=0;points=[[0,0.5],[1,0.5]];portConstraint=eastwest;top=0;left=0;right=0;bottom=0;enumerate=0;metaEdit=0;movable=1;resizable=1;rotatable=1;deletable=1;editable=1;locked=0;connectable=1;" vertex="1" parent="pp-GfB8wKx1P4uPkhwiW-368">
          <mxGeometry y="160" width="160" height="40" as="geometry" />
        </mxCell>
        <mxCell id="pp-GfB8wKx1P4uPkhwiW-382" value="" style="shape=partialRectangle;connectable=1;fillColor=none;top=0;left=0;bottom=0;right=0;editable=1;overflow=hidden;whiteSpace=wrap;enumerate=0;metaEdit=0;movable=1;resizable=1;rotatable=1;deletable=1;locked=0;" vertex="1" parent="pp-GfB8wKx1P4uPkhwiW-381">
          <mxGeometry width="30" height="40" as="geometry">
            <mxRectangle width="30" height="40" as="alternateBounds" />
          </mxGeometry>
        </mxCell>
        <mxCell id="pp-GfB8wKx1P4uPkhwiW-383" value="year" style="shape=partialRectangle;connectable=1;fillColor=none;top=0;left=0;bottom=0;right=0;align=left;spacingLeft=6;overflow=hidden;whiteSpace=wrap;enumerate=0;metaEdit=0;movable=1;resizable=1;rotatable=1;deletable=1;editable=1;locked=0;" vertex="1" parent="pp-GfB8wKx1P4uPkhwiW-381">
          <mxGeometry x="30" width="130" height="40" as="geometry">
            <mxRectangle width="130" height="40" as="alternateBounds" />
          </mxGeometry>
        </mxCell>
        <mxCell id="pp-GfB8wKx1P4uPkhwiW-407" value="" style="endArrow=open;endFill=1;endSize=12;html=1;rounded=0;exitX=1;exitY=0.5;exitDx=0;exitDy=0;entryX=0;entryY=0.5;entryDx=0;entryDy=0;edgeStyle=orthogonalEdgeStyle;" edge="1" parent="pp-GfB8wKx1P4uPkhwiW-2" source="pp-GfB8wKx1P4uPkhwiW-286" target="pp-GfB8wKx1P4uPkhwiW-370">
          <mxGeometry width="160" relative="1" as="geometry">
            <mxPoint x="390.00095238095236" y="336.25" as="sourcePoint" />
            <mxPoint x="550.0009523809524" y="336.25" as="targetPoint" />
          </mxGeometry>
        </mxCell>
        <mxCell id="pp-GfB8wKx1P4uPkhwiW-408" value="" style="endArrow=open;endFill=1;endSize=12;html=1;rounded=0;entryX=0;entryY=0.75;entryDx=0;entryDy=0;edgeStyle=orthogonalEdgeStyle;" edge="1" parent="pp-GfB8wKx1P4uPkhwiW-2" target="pp-GfB8wKx1P4uPkhwiW-14">
          <mxGeometry width="160" relative="1" as="geometry">
            <mxPoint x="197.00095238095236" y="497" as="sourcePoint" />
            <mxPoint x="550.0009523809524" y="336.25" as="targetPoint" />
          </mxGeometry>
        </mxCell>
        <mxCell id="pp-GfB8wKx1P4uPkhwiW-416" value="" style="edgeStyle=entityRelationEdgeStyle;fontSize=12;html=1;endArrow=blockThin;rounded=0;exitX=1;exitY=0.25;exitDx=0;exitDy=0;endFill=0;" edge="1" parent="pp-GfB8wKx1P4uPkhwiW-2" source="pp-GfB8wKx1P4uPkhwiW-9">
          <mxGeometry width="100" height="100" relative="1" as="geometry">
            <mxPoint x="626.0009523809524" y="240" as="sourcePoint" />
            <mxPoint x="726.0009523809524" y="84" as="targetPoint" />
            <Array as="points">
              <mxPoint x="722.0009523809524" y="355" />
            </Array>
          </mxGeometry>
        </mxCell>
        <mxCell id="pp-GfB8wKx1P4uPkhwiW-417" value="" style="edgeStyle=entityRelationEdgeStyle;fontSize=12;html=1;endArrow=blockThin;rounded=0;endFill=0;" edge="1" parent="pp-GfB8wKx1P4uPkhwiW-2" source="pp-GfB8wKx1P4uPkhwiW-63" target="pp-GfB8wKx1P4uPkhwiW-5">
          <mxGeometry width="100" height="100" relative="1" as="geometry">
            <mxPoint x="256.0009523809524" y="120" as="sourcePoint" />
            <mxPoint x="362.0009523809524" y="206" as="targetPoint" />
            <Array as="points">
              <mxPoint x="352.0009523809524" y="235" />
            </Array>
          </mxGeometry>
        </mxCell>
        <mxCell id="pp-GfB8wKx1P4uPkhwiW-384" value="loan" style="shape=table;startSize=29;container=1;collapsible=1;childLayout=tableLayout;fixedRows=1;rowLines=0;fontStyle=1;align=center;resizeLast=1;enumerate=0;metaEdit=0;movable=1;resizable=1;rotatable=1;deletable=1;editable=1;locked=0;connectable=1;" vertex="1" parent="pp-GfB8wKx1P4uPkhwiW-2">
          <mxGeometry x="590" y="446.25" width="160" height="210" as="geometry" />
        </mxCell>
        <mxCell id="pp-GfB8wKx1P4uPkhwiW-385" value="" style="shape=tableRow;horizontal=0;startSize=0;swimlaneHead=0;swimlaneBody=0;fillColor=none;collapsible=0;dropTarget=0;points=[[0,0.5],[1,0.5]];portConstraint=eastwest;top=0;left=0;right=0;bottom=1;enumerate=0;metaEdit=0;movable=1;resizable=1;rotatable=1;deletable=1;editable=1;locked=0;connectable=1;" vertex="1" parent="pp-GfB8wKx1P4uPkhwiW-384">
          <mxGeometry y="29" width="160" height="30" as="geometry" />
        </mxCell>
        <mxCell id="pp-GfB8wKx1P4uPkhwiW-386" value="PK" style="shape=partialRectangle;connectable=1;fillColor=none;top=0;left=0;bottom=0;right=0;fontStyle=1;overflow=hidden;whiteSpace=wrap;enumerate=0;metaEdit=0;movable=1;resizable=1;rotatable=1;deletable=1;editable=1;locked=0;" vertex="1" parent="pp-GfB8wKx1P4uPkhwiW-385">
          <mxGeometry width="30" height="30" as="geometry">
            <mxRectangle width="30" height="30" as="alternateBounds" />
          </mxGeometry>
        </mxCell>
        <mxCell id="pp-GfB8wKx1P4uPkhwiW-387" value="loanID" style="shape=partialRectangle;connectable=1;fillColor=none;top=0;left=0;bottom=0;right=0;align=left;spacingLeft=6;fontStyle=5;overflow=hidden;whiteSpace=wrap;enumerate=0;metaEdit=0;movable=1;resizable=1;rotatable=1;deletable=1;editable=1;locked=0;" vertex="1" parent="pp-GfB8wKx1P4uPkhwiW-385">
          <mxGeometry x="30" width="130" height="30" as="geometry">
            <mxRectangle width="130" height="30" as="alternateBounds" />
          </mxGeometry>
        </mxCell>
        <mxCell id="pp-GfB8wKx1P4uPkhwiW-388" value="" style="shape=tableRow;horizontal=0;startSize=0;swimlaneHead=0;swimlaneBody=0;fillColor=none;collapsible=0;dropTarget=0;points=[[0,0.5],[1,0.5]];portConstraint=eastwest;top=0;left=0;right=0;bottom=0;enumerate=0;metaEdit=0;movable=1;resizable=1;rotatable=1;deletable=1;editable=1;locked=0;connectable=1;" vertex="1" parent="pp-GfB8wKx1P4uPkhwiW-384">
          <mxGeometry y="59" width="160" height="30" as="geometry" />
        </mxCell>
        <mxCell id="pp-GfB8wKx1P4uPkhwiW-389" value="" style="shape=partialRectangle;connectable=1;fillColor=none;top=0;left=0;bottom=0;right=0;editable=1;overflow=hidden;whiteSpace=wrap;enumerate=0;metaEdit=0;movable=1;resizable=1;rotatable=1;deletable=1;locked=0;" vertex="1" parent="pp-GfB8wKx1P4uPkhwiW-388">
          <mxGeometry width="30" height="30" as="geometry">
            <mxRectangle width="30" height="30" as="alternateBounds" />
          </mxGeometry>
        </mxCell>
        <mxCell id="pp-GfB8wKx1P4uPkhwiW-390" value="loanType" style="shape=partialRectangle;connectable=1;fillColor=none;top=0;left=0;bottom=0;right=0;align=left;spacingLeft=6;overflow=hidden;whiteSpace=wrap;enumerate=0;metaEdit=0;movable=1;resizable=1;rotatable=1;deletable=1;editable=1;locked=0;" vertex="1" parent="pp-GfB8wKx1P4uPkhwiW-388">
          <mxGeometry x="30" width="130" height="30" as="geometry">
            <mxRectangle width="130" height="30" as="alternateBounds" />
          </mxGeometry>
        </mxCell>
        <mxCell id="pp-GfB8wKx1P4uPkhwiW-391" value="" style="shape=tableRow;horizontal=0;startSize=0;swimlaneHead=0;swimlaneBody=0;fillColor=none;collapsible=0;dropTarget=0;points=[[0,0.5],[1,0.5]];portConstraint=eastwest;top=0;left=0;right=0;bottom=0;enumerate=0;metaEdit=0;movable=1;resizable=1;rotatable=1;deletable=1;editable=1;locked=0;connectable=1;" vertex="1" parent="pp-GfB8wKx1P4uPkhwiW-384">
          <mxGeometry y="89" width="160" height="30" as="geometry" />
        </mxCell>
        <mxCell id="pp-GfB8wKx1P4uPkhwiW-392" value="" style="shape=partialRectangle;connectable=1;fillColor=none;top=0;left=0;bottom=0;right=0;editable=1;overflow=hidden;whiteSpace=wrap;enumerate=0;metaEdit=0;movable=1;resizable=1;rotatable=1;deletable=1;locked=0;" vertex="1" parent="pp-GfB8wKx1P4uPkhwiW-391">
          <mxGeometry width="30" height="30" as="geometry">
            <mxRectangle width="30" height="30" as="alternateBounds" />
          </mxGeometry>
        </mxCell>
        <mxCell id="pp-GfB8wKx1P4uPkhwiW-393" value="loanAccount" style="shape=partialRectangle;connectable=1;fillColor=none;top=0;left=0;bottom=0;right=0;align=left;spacingLeft=6;overflow=hidden;whiteSpace=wrap;enumerate=0;metaEdit=0;movable=1;resizable=1;rotatable=1;deletable=1;editable=1;locked=0;" vertex="1" parent="pp-GfB8wKx1P4uPkhwiW-391">
          <mxGeometry x="30" width="130" height="30" as="geometry">
            <mxRectangle width="130" height="30" as="alternateBounds" />
          </mxGeometry>
        </mxCell>
        <mxCell id="pp-GfB8wKx1P4uPkhwiW-394" value="" style="shape=tableRow;horizontal=0;startSize=0;swimlaneHead=0;swimlaneBody=0;fillColor=none;collapsible=0;dropTarget=0;points=[[0,0.5],[1,0.5]];portConstraint=eastwest;top=0;left=0;right=0;bottom=0;enumerate=0;metaEdit=0;movable=1;resizable=1;rotatable=1;deletable=1;editable=1;locked=0;connectable=1;" vertex="1" parent="pp-GfB8wKx1P4uPkhwiW-384">
          <mxGeometry y="119" width="160" height="40" as="geometry" />
        </mxCell>
        <mxCell id="pp-GfB8wKx1P4uPkhwiW-395" value="FK" style="shape=partialRectangle;connectable=1;fillColor=none;top=0;left=0;bottom=0;right=0;editable=1;overflow=hidden;whiteSpace=wrap;enumerate=0;metaEdit=0;movable=1;resizable=1;rotatable=1;deletable=1;locked=0;" vertex="1" parent="pp-GfB8wKx1P4uPkhwiW-394">
          <mxGeometry width="30" height="40" as="geometry">
            <mxRectangle width="30" height="40" as="alternateBounds" />
          </mxGeometry>
        </mxCell>
        <mxCell id="pp-GfB8wKx1P4uPkhwiW-396" value="startDate_ID" style="shape=partialRectangle;connectable=1;fillColor=none;top=0;left=0;bottom=0;right=0;align=left;spacingLeft=6;overflow=hidden;whiteSpace=wrap;enumerate=0;metaEdit=0;movable=1;resizable=1;rotatable=1;deletable=1;editable=1;locked=0;" vertex="1" parent="pp-GfB8wKx1P4uPkhwiW-394">
          <mxGeometry x="30" width="130" height="40" as="geometry">
            <mxRectangle width="130" height="40" as="alternateBounds" />
          </mxGeometry>
        </mxCell>
        <mxCell id="pp-GfB8wKx1P4uPkhwiW-397" value="" style="shape=tableRow;horizontal=0;startSize=0;swimlaneHead=0;swimlaneBody=0;fillColor=none;collapsible=0;dropTarget=0;points=[[0,0.5],[1,0.5]];portConstraint=eastwest;top=0;left=0;right=0;bottom=0;enumerate=0;metaEdit=0;movable=1;resizable=1;rotatable=1;deletable=1;editable=1;locked=0;connectable=1;" vertex="1" parent="pp-GfB8wKx1P4uPkhwiW-384">
          <mxGeometry y="159" width="160" height="50" as="geometry" />
        </mxCell>
        <mxCell id="pp-GfB8wKx1P4uPkhwiW-398" value="" style="shape=partialRectangle;connectable=1;fillColor=none;top=0;left=0;bottom=0;right=0;editable=1;overflow=hidden;whiteSpace=wrap;enumerate=0;metaEdit=0;movable=1;resizable=1;rotatable=1;deletable=1;locked=0;" vertex="1" parent="pp-GfB8wKx1P4uPkhwiW-397">
          <mxGeometry width="30" height="50" as="geometry">
            <mxRectangle width="30" height="50" as="alternateBounds" />
          </mxGeometry>
        </mxCell>
        <mxCell id="pp-GfB8wKx1P4uPkhwiW-399" value="interest" style="shape=partialRectangle;connectable=1;fillColor=none;top=0;left=0;bottom=0;right=0;align=left;spacingLeft=6;overflow=hidden;whiteSpace=wrap;enumerate=0;metaEdit=0;movable=1;resizable=1;rotatable=1;deletable=1;editable=1;locked=0;" vertex="1" parent="pp-GfB8wKx1P4uPkhwiW-397">
          <mxGeometry x="30" width="130" height="50" as="geometry">
            <mxRectangle width="130" height="50" as="alternateBounds" />
          </mxGeometry>
        </mxCell>
        <mxCell id="pp-GfB8wKx1P4uPkhwiW-403" value="enddate_ID" style="shape=partialRectangle;connectable=1;fillColor=none;top=0;left=0;bottom=0;right=0;align=left;spacingLeft=6;overflow=hidden;whiteSpace=wrap;enumerate=0;metaEdit=0;movable=1;resizable=1;rotatable=1;deletable=1;editable=1;locked=0;" vertex="1" parent="pp-GfB8wKx1P4uPkhwiW-2">
          <mxGeometry x="620.0009523809524" y="586.25" width="130" height="40" as="geometry">
            <mxRectangle width="130" height="40" as="alternateBounds" />
          </mxGeometry>
        </mxCell>
        <mxCell id="pp-GfB8wKx1P4uPkhwiW-409" value="FK" style="text;html=1;align=center;verticalAlign=middle;whiteSpace=wrap;rounded=0;" vertex="1" parent="pp-GfB8wKx1P4uPkhwiW-2">
          <mxGeometry x="576.0009523809524" y="591.25" width="60" height="30" as="geometry" />
        </mxCell>
        <mxCell id="pp-GfB8wKx1P4uPkhwiW-74" style="edgeStyle=elbowEdgeStyle;rounded=0;orthogonalLoop=1;jettySize=auto;html=1;exitX=0;exitY=0;exitDx=0;exitDy=0;movable=1;resizable=1;rotatable=1;deletable=1;editable=1;locked=0;connectable=1;" edge="1" parent="1">
          <mxGeometry relative="1" as="geometry">
            <mxPoint x="532.952380952381" y="93.05000000000001" as="sourcePoint" />
            <mxPoint x="532.952380952381" y="93.05000000000001" as="targetPoint" />
          </mxGeometry>
        </mxCell>
        <mxCell id="pp-GfB8wKx1P4uPkhwiW-75" style="edgeStyle=elbowEdgeStyle;rounded=0;orthogonalLoop=1;jettySize=auto;html=1;exitX=0.5;exitY=0;exitDx=0;exitDy=0;movable=1;resizable=1;rotatable=1;deletable=1;editable=1;locked=0;connectable=1;" edge="1" parent="1">
          <mxGeometry relative="1" as="geometry">
            <mxPoint x="946.1142857142858" y="93.05000000000001" as="sourcePoint" />
            <mxPoint x="946.1142857142858" y="93.05000000000001" as="targetPoint" />
          </mxGeometry>
        </mxCell>
        <mxCell id="pp-GfB8wKx1P4uPkhwiW-633" value="" style="group;movable=0;resizable=0;rotatable=0;deletable=0;editable=0;locked=1;connectable=0;" vertex="1" connectable="0" parent="1">
          <mxGeometry x="1450" y="-180" width="1010" height="800" as="geometry" />
        </mxCell>
        <mxCell id="pp-GfB8wKx1P4uPkhwiW-632" value="" style="rounded=1;whiteSpace=wrap;html=1;strokeColor=#FFFFFF;fillColor=#CCCC00;container=0;movable=1;resizable=1;rotatable=1;deletable=1;editable=1;locked=0;connectable=1;" vertex="1" parent="pp-GfB8wKx1P4uPkhwiW-633">
          <mxGeometry width="1010" height="800" as="geometry" />
        </mxCell>
        <mxCell id="pp-GfB8wKx1P4uPkhwiW-419" value="transaction" style="shape=table;startSize=30;container=1;collapsible=1;childLayout=tableLayout;fixedRows=1;rowLines=1;fontStyle=1;align=center;resizeLast=1;html=1;enumerate=0;metaEdit=0;movable=1;resizable=1;rotatable=1;deletable=1;editable=1;locked=0;connectable=1;perimeterSpacing=0;spacingBottom=-1;" vertex="1" parent="pp-GfB8wKx1P4uPkhwiW-633">
          <mxGeometry x="319.9990476190476" y="250" width="153.71" height="124.7100000000001" as="geometry" />
        </mxCell>
        <mxCell id="pp-GfB8wKx1P4uPkhwiW-420" value="" style="shape=tableRow;horizontal=0;startSize=0;swimlaneHead=0;swimlaneBody=0;fillColor=none;collapsible=0;dropTarget=0;points=[[0,0.5],[1,0.5]];portConstraint=eastwest;top=0;left=0;right=0;bottom=1;enumerate=0;metaEdit=0;movable=1;resizable=1;rotatable=1;deletable=1;editable=1;locked=0;connectable=1;" vertex="1" parent="pp-GfB8wKx1P4uPkhwiW-419">
          <mxGeometry y="30" width="153.71" height="30" as="geometry" />
        </mxCell>
        <mxCell id="pp-GfB8wKx1P4uPkhwiW-421" value="PK" style="shape=partialRectangle;connectable=1;fillColor=none;top=0;left=0;bottom=0;right=0;fontStyle=1;overflow=hidden;whiteSpace=wrap;enumerate=0;metaEdit=0;movable=1;resizable=1;rotatable=1;deletable=1;editable=1;locked=0;" vertex="1" parent="pp-GfB8wKx1P4uPkhwiW-420">
          <mxGeometry width="30" height="30" as="geometry">
            <mxRectangle width="30" height="30" as="alternateBounds" />
          </mxGeometry>
        </mxCell>
        <mxCell id="pp-GfB8wKx1P4uPkhwiW-422" value="transactionID" style="shape=partialRectangle;connectable=1;fillColor=none;top=0;left=0;bottom=0;right=0;align=left;spacingLeft=6;fontStyle=5;overflow=hidden;whiteSpace=wrap;html=1;enumerate=0;metaEdit=0;movable=1;resizable=1;rotatable=1;deletable=1;editable=1;locked=0;strokeWidth=1;" vertex="1" parent="pp-GfB8wKx1P4uPkhwiW-420">
          <mxGeometry x="30" width="123.71000000000001" height="30" as="geometry">
            <mxRectangle width="123.71000000000001" height="30" as="alternateBounds" />
          </mxGeometry>
        </mxCell>
        <mxCell id="pp-GfB8wKx1P4uPkhwiW-607" value="" style="shape=tableRow;horizontal=0;startSize=0;swimlaneHead=0;swimlaneBody=0;fillColor=none;collapsible=0;dropTarget=0;points=[[0,0.5],[1,0.5]];portConstraint=eastwest;top=0;left=0;right=0;bottom=1;enumerate=0;metaEdit=0;movable=1;resizable=1;rotatable=1;deletable=1;editable=1;locked=0;connectable=1;" vertex="1" parent="pp-GfB8wKx1P4uPkhwiW-419">
          <mxGeometry y="60" width="153.71" height="30" as="geometry" />
        </mxCell>
        <mxCell id="pp-GfB8wKx1P4uPkhwiW-608" value="PK" style="shape=partialRectangle;connectable=1;fillColor=none;top=0;left=0;bottom=0;right=0;fontStyle=1;overflow=hidden;whiteSpace=wrap;enumerate=0;metaEdit=0;movable=1;resizable=1;rotatable=1;deletable=1;editable=1;locked=0;" vertex="1" parent="pp-GfB8wKx1P4uPkhwiW-607">
          <mxGeometry width="30" height="30" as="geometry">
            <mxRectangle width="30" height="30" as="alternateBounds" />
          </mxGeometry>
        </mxCell>
        <mxCell id="pp-GfB8wKx1P4uPkhwiW-609" value="transactionID" style="shape=partialRectangle;connectable=1;fillColor=none;top=0;left=0;bottom=0;right=0;align=left;spacingLeft=6;fontStyle=5;overflow=hidden;whiteSpace=wrap;html=1;enumerate=0;metaEdit=0;movable=1;resizable=1;rotatable=1;deletable=1;editable=1;locked=0;strokeWidth=1;" vertex="1" parent="pp-GfB8wKx1P4uPkhwiW-607">
          <mxGeometry x="30" width="123.71000000000001" height="30" as="geometry">
            <mxRectangle width="123.71000000000001" height="30" as="alternateBounds" />
          </mxGeometry>
        </mxCell>
        <mxCell id="pp-GfB8wKx1P4uPkhwiW-423" value="" style="shape=tableRow;horizontal=0;startSize=0;swimlaneHead=0;swimlaneBody=0;fillColor=none;collapsible=0;dropTarget=0;points=[[0,0.5],[1,0.5]];portConstraint=eastwest;top=0;left=0;right=0;bottom=0;enumerate=0;metaEdit=0;movable=1;resizable=1;rotatable=1;deletable=1;editable=1;locked=0;connectable=1;" vertex="1" parent="pp-GfB8wKx1P4uPkhwiW-419">
          <mxGeometry y="90" width="153.71" height="30" as="geometry" />
        </mxCell>
        <mxCell id="pp-GfB8wKx1P4uPkhwiW-424" value="" style="shape=partialRectangle;connectable=1;fillColor=none;top=0;left=0;bottom=0;right=0;editable=1;overflow=hidden;whiteSpace=wrap;enumerate=0;metaEdit=0;movable=1;resizable=1;rotatable=1;deletable=1;locked=0;" vertex="1" parent="pp-GfB8wKx1P4uPkhwiW-423">
          <mxGeometry width="30" height="30" as="geometry">
            <mxRectangle width="30" height="30" as="alternateBounds" />
          </mxGeometry>
        </mxCell>
        <mxCell id="pp-GfB8wKx1P4uPkhwiW-425" value="transaction_type" style="shape=partialRectangle;connectable=1;fillColor=none;top=0;left=0;bottom=0;right=0;align=left;spacingLeft=6;overflow=hidden;whiteSpace=wrap;html=1;enumerate=0;metaEdit=0;movable=1;resizable=1;rotatable=1;deletable=1;editable=1;locked=0;" vertex="1" parent="pp-GfB8wKx1P4uPkhwiW-423">
          <mxGeometry x="30" width="123.71000000000001" height="30" as="geometry">
            <mxRectangle width="123.71000000000001" height="30" as="alternateBounds" />
          </mxGeometry>
        </mxCell>
        <mxCell id="pp-GfB8wKx1P4uPkhwiW-432" value="accounts_dm" style="shape=table;startSize=30;container=1;collapsible=1;childLayout=tableLayout;fixedRows=1;rowLines=0;fontStyle=1;align=center;resizeLast=1;enumerate=0;metaEdit=0;movable=1;resizable=1;rotatable=1;deletable=1;editable=1;locked=0;connectable=1;" vertex="1" parent="pp-GfB8wKx1P4uPkhwiW-633">
          <mxGeometry x="609.9990476190476" y="89.99999999999994" width="154.67" height="120" as="geometry" />
        </mxCell>
        <mxCell id="pp-GfB8wKx1P4uPkhwiW-433" value="" style="shape=tableRow;horizontal=0;startSize=0;swimlaneHead=0;swimlaneBody=0;fillColor=none;collapsible=0;dropTarget=0;points=[[0,0.5],[1,0.5]];portConstraint=eastwest;top=0;left=0;right=0;bottom=1;enumerate=0;metaEdit=0;movable=1;resizable=1;rotatable=1;deletable=1;editable=1;locked=0;connectable=1;" vertex="1" parent="pp-GfB8wKx1P4uPkhwiW-432">
          <mxGeometry y="30" width="154.67" height="30" as="geometry" />
        </mxCell>
        <mxCell id="pp-GfB8wKx1P4uPkhwiW-434" value="PK" style="shape=partialRectangle;connectable=1;fillColor=none;top=0;left=0;bottom=0;right=0;fontStyle=1;overflow=hidden;whiteSpace=wrap;enumerate=0;metaEdit=0;movable=1;resizable=1;rotatable=1;deletable=1;editable=1;locked=0;" vertex="1" parent="pp-GfB8wKx1P4uPkhwiW-433">
          <mxGeometry width="30" height="30" as="geometry">
            <mxRectangle width="30" height="30" as="alternateBounds" />
          </mxGeometry>
        </mxCell>
        <mxCell id="pp-GfB8wKx1P4uPkhwiW-435" value="accountsID" style="shape=partialRectangle;connectable=1;fillColor=none;top=0;left=0;bottom=0;right=0;align=left;spacingLeft=6;fontStyle=5;overflow=hidden;whiteSpace=wrap;enumerate=0;metaEdit=0;movable=1;resizable=1;rotatable=1;deletable=1;editable=1;locked=0;" vertex="1" parent="pp-GfB8wKx1P4uPkhwiW-433">
          <mxGeometry x="30" width="124.66999999999999" height="30" as="geometry">
            <mxRectangle width="124.66999999999999" height="30" as="alternateBounds" />
          </mxGeometry>
        </mxCell>
        <mxCell id="pp-GfB8wKx1P4uPkhwiW-436" value="" style="shape=tableRow;horizontal=0;startSize=0;swimlaneHead=0;swimlaneBody=0;fillColor=none;collapsible=0;dropTarget=0;points=[[0,0.5],[1,0.5]];portConstraint=eastwest;top=0;left=0;right=0;bottom=0;enumerate=0;metaEdit=0;movable=1;resizable=1;rotatable=1;deletable=1;editable=1;locked=0;connectable=1;" vertex="1" parent="pp-GfB8wKx1P4uPkhwiW-432">
          <mxGeometry y="60" width="154.67" height="30" as="geometry" />
        </mxCell>
        <mxCell id="pp-GfB8wKx1P4uPkhwiW-437" value="" style="shape=partialRectangle;connectable=1;fillColor=none;top=0;left=0;bottom=0;right=0;editable=1;overflow=hidden;whiteSpace=wrap;enumerate=0;metaEdit=0;movable=1;resizable=1;rotatable=1;deletable=1;locked=0;" vertex="1" parent="pp-GfB8wKx1P4uPkhwiW-436">
          <mxGeometry width="30" height="30" as="geometry">
            <mxRectangle width="30" height="30" as="alternateBounds" />
          </mxGeometry>
        </mxCell>
        <mxCell id="pp-GfB8wKx1P4uPkhwiW-438" value="aacountType" style="shape=partialRectangle;connectable=1;fillColor=none;top=0;left=0;bottom=0;right=0;align=left;spacingLeft=6;overflow=hidden;whiteSpace=wrap;enumerate=0;metaEdit=0;movable=1;resizable=1;rotatable=1;deletable=1;editable=1;locked=0;" vertex="1" parent="pp-GfB8wKx1P4uPkhwiW-436">
          <mxGeometry x="30" width="124.66999999999999" height="30" as="geometry">
            <mxRectangle width="124.66999999999999" height="30" as="alternateBounds" />
          </mxGeometry>
        </mxCell>
        <mxCell id="pp-GfB8wKx1P4uPkhwiW-439" value="" style="shape=tableRow;horizontal=0;startSize=0;swimlaneHead=0;swimlaneBody=0;fillColor=none;collapsible=0;dropTarget=0;points=[[0,0.5],[1,0.5]];portConstraint=eastwest;top=0;left=0;right=0;bottom=0;enumerate=0;metaEdit=0;movable=1;resizable=1;rotatable=1;deletable=1;editable=1;locked=0;connectable=1;" vertex="1" parent="pp-GfB8wKx1P4uPkhwiW-432">
          <mxGeometry y="90" width="154.67" height="30" as="geometry" />
        </mxCell>
        <mxCell id="pp-GfB8wKx1P4uPkhwiW-440" value="" style="shape=partialRectangle;connectable=1;fillColor=none;top=0;left=0;bottom=0;right=0;editable=1;overflow=hidden;whiteSpace=wrap;enumerate=0;metaEdit=0;movable=1;resizable=1;rotatable=1;deletable=1;locked=0;" vertex="1" parent="pp-GfB8wKx1P4uPkhwiW-439">
          <mxGeometry width="30" height="30" as="geometry">
            <mxRectangle width="30" height="30" as="alternateBounds" />
          </mxGeometry>
        </mxCell>
        <mxCell id="pp-GfB8wKx1P4uPkhwiW-441" value="balance" style="shape=partialRectangle;connectable=1;fillColor=none;top=0;left=0;bottom=0;right=0;align=left;spacingLeft=6;overflow=hidden;whiteSpace=wrap;enumerate=0;metaEdit=0;movable=1;resizable=1;rotatable=1;deletable=1;editable=1;locked=0;" vertex="1" parent="pp-GfB8wKx1P4uPkhwiW-439">
          <mxGeometry x="30" width="124.66999999999999" height="30" as="geometry">
            <mxRectangle width="124.66999999999999" height="30" as="alternateBounds" />
          </mxGeometry>
        </mxCell>
        <mxCell id="pp-GfB8wKx1P4uPkhwiW-536" value="transaction_fact_table" style="shape=table;startSize=50;container=1;collapsible=1;childLayout=tableLayout;fixedRows=1;rowLines=0;fontStyle=1;align=center;resizeLast=1;enumerate=0;metaEdit=0;movable=1;resizable=1;rotatable=1;deletable=1;editable=1;locked=0;connectable=1;" vertex="1" parent="pp-GfB8wKx1P4uPkhwiW-633">
          <mxGeometry x="590" y="440" width="298" height="220" as="geometry" />
        </mxCell>
        <mxCell id="pp-GfB8wKx1P4uPkhwiW-537" value="" style="shape=tableRow;horizontal=0;startSize=0;swimlaneHead=0;swimlaneBody=0;fillColor=none;collapsible=0;dropTarget=0;points=[[0,0.5],[1,0.5]];portConstraint=eastwest;top=0;left=0;right=0;bottom=1;enumerate=0;metaEdit=0;movable=1;resizable=1;rotatable=1;deletable=1;editable=1;locked=0;connectable=1;" vertex="1" parent="pp-GfB8wKx1P4uPkhwiW-536">
          <mxGeometry y="50" width="298" height="30" as="geometry" />
        </mxCell>
        <mxCell id="pp-GfB8wKx1P4uPkhwiW-538" value="PK, FK" style="shape=partialRectangle;connectable=1;fillColor=none;top=0;left=0;bottom=0;right=0;fontStyle=1;overflow=hidden;whiteSpace=wrap;enumerate=0;metaEdit=0;movable=1;resizable=1;rotatable=1;deletable=1;editable=1;locked=0;" vertex="1" parent="pp-GfB8wKx1P4uPkhwiW-537">
          <mxGeometry width="80" height="30" as="geometry">
            <mxRectangle width="80" height="30" as="alternateBounds" />
          </mxGeometry>
        </mxCell>
        <mxCell id="pp-GfB8wKx1P4uPkhwiW-539" value="transactionID" style="shape=partialRectangle;connectable=1;fillColor=none;top=0;left=0;bottom=0;right=0;align=left;spacingLeft=6;fontStyle=5;overflow=hidden;whiteSpace=wrap;enumerate=0;metaEdit=0;movable=1;resizable=1;rotatable=1;deletable=1;editable=1;locked=0;" vertex="1" parent="pp-GfB8wKx1P4uPkhwiW-537">
          <mxGeometry x="80" width="218" height="30" as="geometry">
            <mxRectangle width="218" height="30" as="alternateBounds" />
          </mxGeometry>
        </mxCell>
        <mxCell id="pp-GfB8wKx1P4uPkhwiW-540" value="" style="shape=tableRow;horizontal=0;startSize=0;swimlaneHead=0;swimlaneBody=0;fillColor=none;collapsible=0;dropTarget=0;points=[[0,0.5],[1,0.5]];portConstraint=eastwest;top=0;left=0;right=0;bottom=0;enumerate=0;metaEdit=0;movable=1;resizable=1;rotatable=1;deletable=1;editable=1;locked=0;connectable=1;" vertex="1" parent="pp-GfB8wKx1P4uPkhwiW-536">
          <mxGeometry y="80" width="298" height="30" as="geometry" />
        </mxCell>
        <mxCell id="pp-GfB8wKx1P4uPkhwiW-541" value="PF, FK" style="shape=partialRectangle;connectable=1;fillColor=none;top=0;left=0;bottom=0;right=0;editable=1;overflow=hidden;whiteSpace=wrap;enumerate=0;metaEdit=0;movable=1;resizable=1;rotatable=1;deletable=1;locked=0;" vertex="1" parent="pp-GfB8wKx1P4uPkhwiW-540">
          <mxGeometry width="80" height="30" as="geometry">
            <mxRectangle width="80" height="30" as="alternateBounds" />
          </mxGeometry>
        </mxCell>
        <mxCell id="pp-GfB8wKx1P4uPkhwiW-542" value="accountID" style="shape=partialRectangle;connectable=1;fillColor=none;top=0;left=0;bottom=0;right=0;align=left;spacingLeft=6;overflow=hidden;whiteSpace=wrap;enumerate=0;metaEdit=0;movable=1;resizable=1;rotatable=1;deletable=1;editable=1;locked=0;" vertex="1" parent="pp-GfB8wKx1P4uPkhwiW-540">
          <mxGeometry x="80" width="218" height="30" as="geometry">
            <mxRectangle width="218" height="30" as="alternateBounds" />
          </mxGeometry>
        </mxCell>
        <mxCell id="pp-GfB8wKx1P4uPkhwiW-543" value="" style="shape=tableRow;horizontal=0;startSize=0;swimlaneHead=0;swimlaneBody=0;fillColor=none;collapsible=0;dropTarget=0;points=[[0,0.5],[1,0.5]];portConstraint=eastwest;top=0;left=0;right=0;bottom=0;enumerate=0;metaEdit=0;movable=1;resizable=1;rotatable=1;deletable=1;editable=1;locked=0;connectable=1;" vertex="1" parent="pp-GfB8wKx1P4uPkhwiW-536">
          <mxGeometry y="110" width="298" height="30" as="geometry" />
        </mxCell>
        <mxCell id="pp-GfB8wKx1P4uPkhwiW-544" value="PK, FK" style="shape=partialRectangle;connectable=1;fillColor=none;top=0;left=0;bottom=0;right=0;editable=1;overflow=hidden;whiteSpace=wrap;enumerate=0;metaEdit=0;movable=1;resizable=1;rotatable=1;deletable=1;locked=0;" vertex="1" parent="pp-GfB8wKx1P4uPkhwiW-543">
          <mxGeometry width="80" height="30" as="geometry">
            <mxRectangle width="80" height="30" as="alternateBounds" />
          </mxGeometry>
        </mxCell>
        <mxCell id="pp-GfB8wKx1P4uPkhwiW-545" value="openingDate_ID" style="shape=partialRectangle;connectable=1;fillColor=none;top=0;left=0;bottom=0;right=0;align=left;spacingLeft=6;overflow=hidden;whiteSpace=wrap;enumerate=0;metaEdit=0;movable=1;resizable=1;rotatable=1;deletable=1;editable=1;locked=0;" vertex="1" parent="pp-GfB8wKx1P4uPkhwiW-543">
          <mxGeometry x="80" width="218" height="30" as="geometry">
            <mxRectangle width="218" height="30" as="alternateBounds" />
          </mxGeometry>
        </mxCell>
        <mxCell id="pp-GfB8wKx1P4uPkhwiW-546" value="" style="shape=tableRow;horizontal=0;startSize=0;swimlaneHead=0;swimlaneBody=0;fillColor=none;collapsible=0;dropTarget=0;points=[[0,0.5],[1,0.5]];portConstraint=eastwest;top=0;left=0;right=0;bottom=0;enumerate=0;metaEdit=0;movable=1;resizable=1;rotatable=1;deletable=1;editable=1;locked=0;connectable=1;" vertex="1" parent="pp-GfB8wKx1P4uPkhwiW-536">
          <mxGeometry y="140" width="298" height="40" as="geometry" />
        </mxCell>
        <mxCell id="pp-GfB8wKx1P4uPkhwiW-547" value="PK, FK" style="shape=partialRectangle;connectable=1;fillColor=none;top=0;left=0;bottom=0;right=0;editable=1;overflow=hidden;whiteSpace=wrap;enumerate=0;metaEdit=0;movable=1;resizable=1;rotatable=1;deletable=1;locked=0;" vertex="1" parent="pp-GfB8wKx1P4uPkhwiW-546">
          <mxGeometry width="80" height="40" as="geometry">
            <mxRectangle width="80" height="40" as="alternateBounds" />
          </mxGeometry>
        </mxCell>
        <mxCell id="pp-GfB8wKx1P4uPkhwiW-548" value="transactionDate_ID" style="shape=partialRectangle;connectable=1;fillColor=none;top=0;left=0;bottom=0;right=0;align=left;spacingLeft=6;overflow=hidden;whiteSpace=wrap;enumerate=0;metaEdit=0;movable=1;resizable=1;rotatable=1;deletable=1;editable=1;locked=0;" vertex="1" parent="pp-GfB8wKx1P4uPkhwiW-546">
          <mxGeometry x="80" width="218" height="40" as="geometry">
            <mxRectangle width="218" height="40" as="alternateBounds" />
          </mxGeometry>
        </mxCell>
        <mxCell id="pp-GfB8wKx1P4uPkhwiW-549" value="" style="shape=tableRow;horizontal=0;startSize=0;swimlaneHead=0;swimlaneBody=0;fillColor=none;collapsible=0;dropTarget=0;points=[[0,0.5],[1,0.5]];portConstraint=eastwest;top=0;left=0;right=0;bottom=0;enumerate=0;metaEdit=0;movable=1;resizable=1;rotatable=1;deletable=1;editable=1;locked=0;connectable=1;" vertex="1" parent="pp-GfB8wKx1P4uPkhwiW-536">
          <mxGeometry y="180" width="298" height="40" as="geometry" />
        </mxCell>
        <mxCell id="pp-GfB8wKx1P4uPkhwiW-550" value="PK, FK" style="shape=partialRectangle;connectable=1;fillColor=none;top=0;left=0;bottom=0;right=0;editable=1;overflow=hidden;whiteSpace=wrap;enumerate=0;metaEdit=0;movable=1;resizable=1;rotatable=1;deletable=1;locked=0;" vertex="1" parent="pp-GfB8wKx1P4uPkhwiW-549">
          <mxGeometry width="80" height="40" as="geometry">
            <mxRectangle width="80" height="40" as="alternateBounds" />
          </mxGeometry>
        </mxCell>
        <mxCell id="pp-GfB8wKx1P4uPkhwiW-551" value="amount" style="shape=partialRectangle;connectable=1;fillColor=none;top=0;left=0;bottom=0;right=0;align=left;spacingLeft=6;overflow=hidden;whiteSpace=wrap;enumerate=0;metaEdit=0;movable=1;resizable=1;rotatable=1;deletable=1;editable=1;locked=0;" vertex="1" parent="pp-GfB8wKx1P4uPkhwiW-549">
          <mxGeometry x="80" width="218" height="40" as="geometry">
            <mxRectangle width="218" height="40" as="alternateBounds" />
          </mxGeometry>
        </mxCell>
        <mxCell id="pp-GfB8wKx1P4uPkhwiW-605" style="edgeStyle=entityRelationEdgeStyle;rounded=0;orthogonalLoop=1;jettySize=auto;html=1;movable=1;resizable=1;rotatable=1;deletable=1;editable=1;locked=0;connectable=1;" edge="1" parent="pp-GfB8wKx1P4uPkhwiW-633">
          <mxGeometry relative="1" as="geometry">
            <mxPoint x="473.70904761904785" y="290" as="sourcePoint" />
            <mxPoint x="590" y="505" as="targetPoint" />
          </mxGeometry>
        </mxCell>
        <mxCell id="pp-GfB8wKx1P4uPkhwiW-630" style="edgeStyle=orthogonalEdgeStyle;rounded=0;orthogonalLoop=1;jettySize=auto;html=1;entryX=0;entryY=0.25;entryDx=0;entryDy=0;movable=1;resizable=1;rotatable=1;deletable=1;editable=1;locked=0;connectable=1;" edge="1" parent="pp-GfB8wKx1P4uPkhwiW-633" source="pp-GfB8wKx1P4uPkhwiW-573" target="pp-GfB8wKx1P4uPkhwiW-547">
          <mxGeometry relative="1" as="geometry" />
        </mxCell>
        <mxCell id="pp-GfB8wKx1P4uPkhwiW-631" style="edgeStyle=orthogonalEdgeStyle;rounded=0;orthogonalLoop=1;jettySize=auto;html=1;entryX=1;entryY=0.5;entryDx=0;entryDy=0;movable=1;resizable=1;rotatable=1;deletable=1;editable=1;locked=0;connectable=1;" edge="1" parent="pp-GfB8wKx1P4uPkhwiW-633" source="pp-GfB8wKx1P4uPkhwiW-438" target="pp-GfB8wKx1P4uPkhwiW-542">
          <mxGeometry relative="1" as="geometry" />
        </mxCell>
        <mxCell id="pp-GfB8wKx1P4uPkhwiW-570" value="date" style="shape=table;startSize=30;container=1;collapsible=1;childLayout=tableLayout;fixedRows=1;rowLines=0;fontStyle=1;align=center;resizeLast=1;enumerate=0;metaEdit=0;movable=1;resizable=1;rotatable=1;deletable=1;editable=1;locked=0;connectable=1;" vertex="1" parent="pp-GfB8wKx1P4uPkhwiW-633">
          <mxGeometry x="30" y="460" width="160" height="201.07" as="geometry" />
        </mxCell>
        <mxCell id="pp-GfB8wKx1P4uPkhwiW-571" value="" style="shape=tableRow;horizontal=0;startSize=0;swimlaneHead=0;swimlaneBody=0;fillColor=none;collapsible=0;dropTarget=0;points=[[0,0.5],[1,0.5]];portConstraint=eastwest;top=0;left=0;right=0;bottom=1;enumerate=0;metaEdit=0;movable=1;resizable=1;rotatable=1;deletable=1;editable=1;locked=0;connectable=1;" vertex="1" parent="pp-GfB8wKx1P4uPkhwiW-570">
          <mxGeometry y="30" width="160" height="30" as="geometry" />
        </mxCell>
        <mxCell id="pp-GfB8wKx1P4uPkhwiW-572" value="PK" style="shape=partialRectangle;connectable=1;fillColor=none;top=0;left=0;bottom=0;right=0;fontStyle=1;overflow=hidden;whiteSpace=wrap;enumerate=0;metaEdit=0;movable=1;resizable=1;rotatable=1;deletable=1;editable=1;locked=0;" vertex="1" parent="pp-GfB8wKx1P4uPkhwiW-571">
          <mxGeometry width="40" height="30" as="geometry">
            <mxRectangle width="40" height="30" as="alternateBounds" />
          </mxGeometry>
        </mxCell>
        <mxCell id="pp-GfB8wKx1P4uPkhwiW-573" value="dateID" style="shape=partialRectangle;connectable=1;fillColor=none;top=0;left=0;bottom=0;right=0;align=left;spacingLeft=6;fontStyle=5;overflow=hidden;whiteSpace=wrap;enumerate=0;metaEdit=0;movable=1;resizable=1;rotatable=1;deletable=1;editable=1;locked=0;" vertex="1" parent="pp-GfB8wKx1P4uPkhwiW-571">
          <mxGeometry x="40" width="120" height="30" as="geometry">
            <mxRectangle width="120" height="30" as="alternateBounds" />
          </mxGeometry>
        </mxCell>
        <mxCell id="pp-GfB8wKx1P4uPkhwiW-623" value="" style="shape=tableRow;horizontal=0;startSize=0;swimlaneHead=0;swimlaneBody=0;fillColor=none;collapsible=0;dropTarget=0;points=[[0,0.5],[1,0.5]];portConstraint=eastwest;top=0;left=0;right=0;bottom=0;enumerate=0;metaEdit=0;movable=1;resizable=1;rotatable=1;deletable=1;editable=1;locked=0;connectable=1;" vertex="1" parent="pp-GfB8wKx1P4uPkhwiW-570">
          <mxGeometry y="60" width="160" height="30" as="geometry" />
        </mxCell>
        <mxCell id="pp-GfB8wKx1P4uPkhwiW-624" value="" style="shape=partialRectangle;connectable=1;fillColor=none;top=0;left=0;bottom=0;right=0;editable=1;overflow=hidden;whiteSpace=wrap;enumerate=0;metaEdit=0;movable=1;resizable=1;rotatable=1;deletable=1;locked=0;" vertex="1" parent="pp-GfB8wKx1P4uPkhwiW-623">
          <mxGeometry width="40" height="30" as="geometry">
            <mxRectangle width="40" height="30" as="alternateBounds" />
          </mxGeometry>
        </mxCell>
        <mxCell id="pp-GfB8wKx1P4uPkhwiW-625" value="date" style="shape=partialRectangle;connectable=1;fillColor=none;top=0;left=0;bottom=0;right=0;align=left;spacingLeft=6;overflow=hidden;whiteSpace=wrap;enumerate=0;metaEdit=0;movable=1;resizable=1;rotatable=1;deletable=1;editable=1;locked=0;" vertex="1" parent="pp-GfB8wKx1P4uPkhwiW-623">
          <mxGeometry x="40" width="120" height="30" as="geometry">
            <mxRectangle width="120" height="30" as="alternateBounds" />
          </mxGeometry>
        </mxCell>
        <mxCell id="pp-GfB8wKx1P4uPkhwiW-577" value="" style="shape=tableRow;horizontal=0;startSize=0;swimlaneHead=0;swimlaneBody=0;fillColor=none;collapsible=0;dropTarget=0;points=[[0,0.5],[1,0.5]];portConstraint=eastwest;top=0;left=0;right=0;bottom=0;enumerate=0;metaEdit=0;movable=1;resizable=1;rotatable=1;deletable=1;editable=1;locked=0;connectable=1;" vertex="1" parent="pp-GfB8wKx1P4uPkhwiW-570">
          <mxGeometry y="90" width="160" height="30" as="geometry" />
        </mxCell>
        <mxCell id="pp-GfB8wKx1P4uPkhwiW-578" value="" style="shape=partialRectangle;connectable=1;fillColor=none;top=0;left=0;bottom=0;right=0;editable=1;overflow=hidden;whiteSpace=wrap;enumerate=0;metaEdit=0;movable=1;resizable=1;rotatable=1;deletable=1;locked=0;" vertex="1" parent="pp-GfB8wKx1P4uPkhwiW-577">
          <mxGeometry width="40" height="30" as="geometry">
            <mxRectangle width="40" height="30" as="alternateBounds" />
          </mxGeometry>
        </mxCell>
        <mxCell id="pp-GfB8wKx1P4uPkhwiW-579" value="day" style="shape=partialRectangle;connectable=1;fillColor=none;top=0;left=0;bottom=0;right=0;align=left;spacingLeft=6;overflow=hidden;whiteSpace=wrap;enumerate=0;metaEdit=0;movable=1;resizable=1;rotatable=1;deletable=1;editable=1;locked=0;" vertex="1" parent="pp-GfB8wKx1P4uPkhwiW-577">
          <mxGeometry x="40" width="120" height="30" as="geometry">
            <mxRectangle width="120" height="30" as="alternateBounds" />
          </mxGeometry>
        </mxCell>
        <mxCell id="pp-GfB8wKx1P4uPkhwiW-580" value="" style="shape=tableRow;horizontal=0;startSize=0;swimlaneHead=0;swimlaneBody=0;fillColor=none;collapsible=0;dropTarget=0;points=[[0,0.5],[1,0.5]];portConstraint=eastwest;top=0;left=0;right=0;bottom=0;enumerate=0;metaEdit=0;movable=1;resizable=1;rotatable=1;deletable=1;editable=1;locked=0;connectable=1;" vertex="1" parent="pp-GfB8wKx1P4uPkhwiW-570">
          <mxGeometry y="120" width="160" height="40" as="geometry" />
        </mxCell>
        <mxCell id="pp-GfB8wKx1P4uPkhwiW-581" value="" style="shape=partialRectangle;connectable=1;fillColor=none;top=0;left=0;bottom=0;right=0;editable=1;overflow=hidden;whiteSpace=wrap;enumerate=0;metaEdit=0;movable=1;resizable=1;rotatable=1;deletable=1;locked=0;" vertex="1" parent="pp-GfB8wKx1P4uPkhwiW-580">
          <mxGeometry width="40" height="40" as="geometry">
            <mxRectangle width="40" height="40" as="alternateBounds" />
          </mxGeometry>
        </mxCell>
        <mxCell id="pp-GfB8wKx1P4uPkhwiW-582" value="month" style="shape=partialRectangle;connectable=1;fillColor=none;top=0;left=0;bottom=0;right=0;align=left;spacingLeft=6;overflow=hidden;whiteSpace=wrap;enumerate=0;metaEdit=0;movable=1;resizable=1;rotatable=1;deletable=1;editable=1;locked=0;" vertex="1" parent="pp-GfB8wKx1P4uPkhwiW-580">
          <mxGeometry x="40" width="120" height="40" as="geometry">
            <mxRectangle width="120" height="40" as="alternateBounds" />
          </mxGeometry>
        </mxCell>
        <mxCell id="pp-GfB8wKx1P4uPkhwiW-583" value="" style="shape=tableRow;horizontal=0;startSize=0;swimlaneHead=0;swimlaneBody=0;fillColor=none;collapsible=0;dropTarget=0;points=[[0,0.5],[1,0.5]];portConstraint=eastwest;top=0;left=0;right=0;bottom=0;enumerate=0;metaEdit=0;movable=1;resizable=1;rotatable=1;deletable=1;editable=1;locked=0;connectable=1;" vertex="1" parent="pp-GfB8wKx1P4uPkhwiW-570">
          <mxGeometry y="160" width="160" height="40" as="geometry" />
        </mxCell>
        <mxCell id="pp-GfB8wKx1P4uPkhwiW-584" value="" style="shape=partialRectangle;connectable=1;fillColor=none;top=0;left=0;bottom=0;right=0;editable=1;overflow=hidden;whiteSpace=wrap;enumerate=0;metaEdit=0;movable=1;resizable=1;rotatable=1;deletable=1;locked=0;" vertex="1" parent="pp-GfB8wKx1P4uPkhwiW-583">
          <mxGeometry width="40" height="40" as="geometry">
            <mxRectangle width="40" height="40" as="alternateBounds" />
          </mxGeometry>
        </mxCell>
        <mxCell id="pp-GfB8wKx1P4uPkhwiW-585" value="year" style="shape=partialRectangle;connectable=1;fillColor=none;top=0;left=0;bottom=0;right=0;align=left;spacingLeft=6;overflow=hidden;whiteSpace=wrap;enumerate=0;metaEdit=0;movable=1;resizable=1;rotatable=1;deletable=1;editable=1;locked=0;" vertex="1" parent="pp-GfB8wKx1P4uPkhwiW-583">
          <mxGeometry x="40" width="120" height="40" as="geometry">
            <mxRectangle width="120" height="40" as="alternateBounds" />
          </mxGeometry>
        </mxCell>
        <mxCell id="pp-GfB8wKx1P4uPkhwiW-634" style="edgeStyle=orthogonalEdgeStyle;rounded=0;orthogonalLoop=1;jettySize=auto;html=1;entryX=0;entryY=0.25;entryDx=0;entryDy=0;movable=1;resizable=1;rotatable=1;deletable=1;editable=1;locked=0;connectable=1;" edge="1" parent="pp-GfB8wKx1P4uPkhwiW-633" source="pp-GfB8wKx1P4uPkhwiW-573" target="pp-GfB8wKx1P4uPkhwiW-544">
          <mxGeometry relative="1" as="geometry" />
        </mxCell>
        <mxCell id="pp-GfB8wKx1P4uPkhwiW-635" value="" style="rounded=1;whiteSpace=wrap;html=1;fillColor=light-dark(#008A00,#FF0000);fontColor=#ffffff;strokeColor=#00FFFF;container=1;movable=1;resizable=1;rotatable=1;deletable=1;editable=1;locked=0;connectable=1;" vertex="1" parent="1">
          <mxGeometry x="669.9990476190476" y="730" width="955.0476190476192" height="752.5" as="geometry" />
        </mxCell>
        <mxCell id="pp-GfB8wKx1P4uPkhwiW-649" value="loan_dm" style="shape=table;startSize=27;container=1;collapsible=1;childLayout=tableLayout;fixedRows=1;rowLines=1;fontStyle=1;align=center;resizeLast=1;html=1;enumerate=0;metaEdit=0;movable=1;resizable=1;rotatable=1;deletable=1;editable=1;locked=0;connectable=1;perimeterSpacing=0;spacingBottom=-1;" vertex="1" parent="pp-GfB8wKx1P4uPkhwiW-635">
          <mxGeometry x="700" y="68.57" width="153.71" height="94.7100000000001" as="geometry" />
        </mxCell>
        <mxCell id="pp-GfB8wKx1P4uPkhwiW-650" value="" style="shape=tableRow;horizontal=0;startSize=0;swimlaneHead=0;swimlaneBody=0;fillColor=none;collapsible=0;dropTarget=0;points=[[0,0.5],[1,0.5]];portConstraint=eastwest;top=0;left=0;right=0;bottom=1;enumerate=0;metaEdit=0;movable=1;resizable=1;rotatable=1;deletable=1;editable=1;locked=0;connectable=1;" vertex="1" parent="pp-GfB8wKx1P4uPkhwiW-649">
          <mxGeometry y="27" width="153.71" height="30" as="geometry" />
        </mxCell>
        <mxCell id="pp-GfB8wKx1P4uPkhwiW-651" value="PK" style="shape=partialRectangle;connectable=1;fillColor=none;top=0;left=0;bottom=0;right=0;fontStyle=1;overflow=hidden;whiteSpace=wrap;enumerate=0;metaEdit=0;movable=1;resizable=1;rotatable=1;deletable=1;editable=1;locked=0;" vertex="1" parent="pp-GfB8wKx1P4uPkhwiW-650">
          <mxGeometry width="30" height="30" as="geometry">
            <mxRectangle width="30" height="30" as="alternateBounds" />
          </mxGeometry>
        </mxCell>
        <mxCell id="pp-GfB8wKx1P4uPkhwiW-652" value="loanID" style="shape=partialRectangle;connectable=1;fillColor=none;top=0;left=0;bottom=0;right=0;align=left;spacingLeft=6;fontStyle=5;overflow=hidden;whiteSpace=wrap;html=1;enumerate=0;metaEdit=0;movable=1;resizable=1;rotatable=1;deletable=1;editable=1;locked=0;strokeWidth=1;" vertex="1" parent="pp-GfB8wKx1P4uPkhwiW-650">
          <mxGeometry x="30" width="123.71000000000001" height="30" as="geometry">
            <mxRectangle width="123.71000000000001" height="30" as="alternateBounds" />
          </mxGeometry>
        </mxCell>
        <mxCell id="pp-GfB8wKx1P4uPkhwiW-653" value="" style="shape=tableRow;horizontal=0;startSize=0;swimlaneHead=0;swimlaneBody=0;fillColor=none;collapsible=0;dropTarget=0;points=[[0,0.5],[1,0.5]];portConstraint=eastwest;top=0;left=0;right=0;bottom=0;enumerate=0;metaEdit=0;movable=1;resizable=1;rotatable=1;deletable=1;editable=1;locked=0;connectable=1;" vertex="1" parent="pp-GfB8wKx1P4uPkhwiW-649">
          <mxGeometry y="57" width="153.71" height="30" as="geometry" />
        </mxCell>
        <mxCell id="pp-GfB8wKx1P4uPkhwiW-654" value="" style="shape=partialRectangle;connectable=1;fillColor=none;top=0;left=0;bottom=0;right=0;editable=1;overflow=hidden;whiteSpace=wrap;enumerate=0;metaEdit=0;movable=1;resizable=1;rotatable=1;deletable=1;locked=0;" vertex="1" parent="pp-GfB8wKx1P4uPkhwiW-653">
          <mxGeometry width="30" height="30" as="geometry">
            <mxRectangle width="30" height="30" as="alternateBounds" />
          </mxGeometry>
        </mxCell>
        <mxCell id="pp-GfB8wKx1P4uPkhwiW-655" value="loanType" style="shape=partialRectangle;connectable=1;fillColor=none;top=0;left=0;bottom=0;right=0;align=left;spacingLeft=6;overflow=hidden;whiteSpace=wrap;html=1;enumerate=0;metaEdit=0;movable=1;resizable=1;rotatable=1;deletable=1;editable=1;locked=0;" vertex="1" parent="pp-GfB8wKx1P4uPkhwiW-653">
          <mxGeometry x="30" width="123.71000000000001" height="30" as="geometry">
            <mxRectangle width="123.71000000000001" height="30" as="alternateBounds" />
          </mxGeometry>
        </mxCell>
        <mxCell id="pp-GfB8wKx1P4uPkhwiW-669" value="customer_dm" style="shape=table;startSize=30;container=1;collapsible=1;childLayout=tableLayout;fixedRows=1;rowLines=0;fontStyle=1;align=center;resizeLast=1;enumerate=0;metaEdit=0;movable=1;resizable=1;rotatable=1;deletable=1;editable=1;locked=0;connectable=1;" vertex="1" parent="pp-GfB8wKx1P4uPkhwiW-635">
          <mxGeometry x="60" y="38.93" width="160" height="201.07" as="geometry" />
        </mxCell>
        <mxCell id="pp-GfB8wKx1P4uPkhwiW-670" value="" style="shape=tableRow;horizontal=0;startSize=0;swimlaneHead=0;swimlaneBody=0;fillColor=none;collapsible=0;dropTarget=0;points=[[0,0.5],[1,0.5]];portConstraint=eastwest;top=0;left=0;right=0;bottom=1;enumerate=0;metaEdit=0;movable=1;resizable=1;rotatable=1;deletable=1;editable=1;locked=0;connectable=1;" vertex="1" parent="pp-GfB8wKx1P4uPkhwiW-669">
          <mxGeometry y="30" width="160" height="30" as="geometry" />
        </mxCell>
        <mxCell id="pp-GfB8wKx1P4uPkhwiW-671" value="PK" style="shape=partialRectangle;connectable=1;fillColor=none;top=0;left=0;bottom=0;right=0;fontStyle=1;overflow=hidden;whiteSpace=wrap;enumerate=0;metaEdit=0;movable=1;resizable=1;rotatable=1;deletable=1;editable=1;locked=0;" vertex="1" parent="pp-GfB8wKx1P4uPkhwiW-670">
          <mxGeometry width="30" height="30" as="geometry">
            <mxRectangle width="30" height="30" as="alternateBounds" />
          </mxGeometry>
        </mxCell>
        <mxCell id="pp-GfB8wKx1P4uPkhwiW-672" value="CustomerID" style="shape=partialRectangle;connectable=1;fillColor=none;top=0;left=0;bottom=0;right=0;align=left;spacingLeft=6;fontStyle=5;overflow=hidden;whiteSpace=wrap;enumerate=0;metaEdit=0;movable=1;resizable=1;rotatable=1;deletable=1;editable=1;locked=0;" vertex="1" parent="pp-GfB8wKx1P4uPkhwiW-670">
          <mxGeometry x="30" width="130" height="30" as="geometry">
            <mxRectangle width="130" height="30" as="alternateBounds" />
          </mxGeometry>
        </mxCell>
        <mxCell id="pp-GfB8wKx1P4uPkhwiW-673" value="" style="shape=tableRow;horizontal=0;startSize=0;swimlaneHead=0;swimlaneBody=0;fillColor=none;collapsible=0;dropTarget=0;points=[[0,0.5],[1,0.5]];portConstraint=eastwest;top=0;left=0;right=0;bottom=0;enumerate=0;metaEdit=0;movable=1;resizable=1;rotatable=1;deletable=1;editable=1;locked=0;connectable=1;" vertex="1" parent="pp-GfB8wKx1P4uPkhwiW-669">
          <mxGeometry y="60" width="160" height="30" as="geometry" />
        </mxCell>
        <mxCell id="pp-GfB8wKx1P4uPkhwiW-674" value="" style="shape=partialRectangle;connectable=1;fillColor=none;top=0;left=0;bottom=0;right=0;editable=1;overflow=hidden;whiteSpace=wrap;enumerate=0;metaEdit=0;movable=1;resizable=1;rotatable=1;deletable=1;locked=0;" vertex="1" parent="pp-GfB8wKx1P4uPkhwiW-673">
          <mxGeometry width="30" height="30" as="geometry">
            <mxRectangle width="30" height="30" as="alternateBounds" />
          </mxGeometry>
        </mxCell>
        <mxCell id="pp-GfB8wKx1P4uPkhwiW-675" value="first_name" style="shape=partialRectangle;connectable=1;fillColor=none;top=0;left=0;bottom=0;right=0;align=left;spacingLeft=6;overflow=hidden;whiteSpace=wrap;enumerate=0;metaEdit=0;movable=1;resizable=1;rotatable=1;deletable=1;editable=1;locked=0;" vertex="1" parent="pp-GfB8wKx1P4uPkhwiW-673">
          <mxGeometry x="30" width="130" height="30" as="geometry">
            <mxRectangle width="130" height="30" as="alternateBounds" />
          </mxGeometry>
        </mxCell>
        <mxCell id="pp-GfB8wKx1P4uPkhwiW-676" value="" style="shape=tableRow;horizontal=0;startSize=0;swimlaneHead=0;swimlaneBody=0;fillColor=none;collapsible=0;dropTarget=0;points=[[0,0.5],[1,0.5]];portConstraint=eastwest;top=0;left=0;right=0;bottom=0;enumerate=0;metaEdit=0;movable=1;resizable=1;rotatable=1;deletable=1;editable=1;locked=0;connectable=1;" vertex="1" parent="pp-GfB8wKx1P4uPkhwiW-669">
          <mxGeometry y="90" width="160" height="30" as="geometry" />
        </mxCell>
        <mxCell id="pp-GfB8wKx1P4uPkhwiW-677" value="" style="shape=partialRectangle;connectable=1;fillColor=none;top=0;left=0;bottom=0;right=0;editable=1;overflow=hidden;whiteSpace=wrap;enumerate=0;metaEdit=0;movable=1;resizable=1;rotatable=1;deletable=1;locked=0;" vertex="1" parent="pp-GfB8wKx1P4uPkhwiW-676">
          <mxGeometry width="30" height="30" as="geometry">
            <mxRectangle width="30" height="30" as="alternateBounds" />
          </mxGeometry>
        </mxCell>
        <mxCell id="pp-GfB8wKx1P4uPkhwiW-678" value="last_name" style="shape=partialRectangle;connectable=1;fillColor=none;top=0;left=0;bottom=0;right=0;align=left;spacingLeft=6;overflow=hidden;whiteSpace=wrap;enumerate=0;metaEdit=0;movable=1;resizable=1;rotatable=1;deletable=1;editable=1;locked=0;" vertex="1" parent="pp-GfB8wKx1P4uPkhwiW-676">
          <mxGeometry x="30" width="130" height="30" as="geometry">
            <mxRectangle width="130" height="30" as="alternateBounds" />
          </mxGeometry>
        </mxCell>
        <mxCell id="pp-GfB8wKx1P4uPkhwiW-679" value="" style="shape=tableRow;horizontal=0;startSize=0;swimlaneHead=0;swimlaneBody=0;fillColor=none;collapsible=0;dropTarget=0;points=[[0,0.5],[1,0.5]];portConstraint=eastwest;top=0;left=0;right=0;bottom=0;enumerate=0;metaEdit=0;movable=1;resizable=1;rotatable=1;deletable=1;editable=1;locked=0;connectable=1;" vertex="1" parent="pp-GfB8wKx1P4uPkhwiW-669">
          <mxGeometry y="120" width="160" height="40" as="geometry" />
        </mxCell>
        <mxCell id="pp-GfB8wKx1P4uPkhwiW-680" value="" style="shape=partialRectangle;connectable=1;fillColor=none;top=0;left=0;bottom=0;right=0;editable=1;overflow=hidden;whiteSpace=wrap;enumerate=0;metaEdit=0;movable=1;resizable=1;rotatable=1;deletable=1;locked=0;" vertex="1" parent="pp-GfB8wKx1P4uPkhwiW-679">
          <mxGeometry width="30" height="40" as="geometry">
            <mxRectangle width="30" height="40" as="alternateBounds" />
          </mxGeometry>
        </mxCell>
        <mxCell id="pp-GfB8wKx1P4uPkhwiW-681" value="email" style="shape=partialRectangle;connectable=1;fillColor=none;top=0;left=0;bottom=0;right=0;align=left;spacingLeft=6;overflow=hidden;whiteSpace=wrap;enumerate=0;metaEdit=0;movable=1;resizable=1;rotatable=1;deletable=1;editable=1;locked=0;" vertex="1" parent="pp-GfB8wKx1P4uPkhwiW-679">
          <mxGeometry x="30" width="130" height="40" as="geometry">
            <mxRectangle width="130" height="40" as="alternateBounds" />
          </mxGeometry>
        </mxCell>
        <mxCell id="pp-GfB8wKx1P4uPkhwiW-682" value="" style="shape=tableRow;horizontal=0;startSize=0;swimlaneHead=0;swimlaneBody=0;fillColor=none;collapsible=0;dropTarget=0;points=[[0,0.5],[1,0.5]];portConstraint=eastwest;top=0;left=0;right=0;bottom=0;enumerate=0;metaEdit=0;movable=1;resizable=1;rotatable=1;deletable=1;editable=1;locked=0;connectable=1;" vertex="1" parent="pp-GfB8wKx1P4uPkhwiW-669">
          <mxGeometry y="160" width="160" height="40" as="geometry" />
        </mxCell>
        <mxCell id="pp-GfB8wKx1P4uPkhwiW-683" value="" style="shape=partialRectangle;connectable=1;fillColor=none;top=0;left=0;bottom=0;right=0;editable=1;overflow=hidden;whiteSpace=wrap;enumerate=0;metaEdit=0;movable=1;resizable=1;rotatable=1;deletable=1;locked=0;" vertex="1" parent="pp-GfB8wKx1P4uPkhwiW-682">
          <mxGeometry width="30" height="40" as="geometry">
            <mxRectangle width="30" height="40" as="alternateBounds" />
          </mxGeometry>
        </mxCell>
        <mxCell id="pp-GfB8wKx1P4uPkhwiW-684" value="phone" style="shape=partialRectangle;connectable=1;fillColor=none;top=0;left=0;bottom=0;right=0;align=left;spacingLeft=6;overflow=hidden;whiteSpace=wrap;enumerate=0;metaEdit=0;movable=1;resizable=1;rotatable=1;deletable=1;editable=1;locked=0;" vertex="1" parent="pp-GfB8wKx1P4uPkhwiW-682">
          <mxGeometry x="30" width="130" height="40" as="geometry">
            <mxRectangle width="130" height="40" as="alternateBounds" />
          </mxGeometry>
        </mxCell>
        <mxCell id="pp-GfB8wKx1P4uPkhwiW-685" value="date" style="shape=table;startSize=30;container=1;collapsible=1;childLayout=tableLayout;fixedRows=1;rowLines=0;fontStyle=1;align=center;resizeLast=1;enumerate=0;metaEdit=0;movable=1;resizable=1;rotatable=1;deletable=1;editable=1;locked=0;connectable=1;" vertex="1" parent="pp-GfB8wKx1P4uPkhwiW-635">
          <mxGeometry x="680" y="370" width="160" height="200" as="geometry" />
        </mxCell>
        <mxCell id="pp-GfB8wKx1P4uPkhwiW-686" value="" style="shape=tableRow;horizontal=0;startSize=0;swimlaneHead=0;swimlaneBody=0;fillColor=none;collapsible=0;dropTarget=0;points=[[0,0.5],[1,0.5]];portConstraint=eastwest;top=0;left=0;right=0;bottom=1;enumerate=0;metaEdit=0;movable=1;resizable=1;rotatable=1;deletable=1;editable=1;locked=0;connectable=1;" vertex="1" parent="pp-GfB8wKx1P4uPkhwiW-685">
          <mxGeometry y="30" width="160" height="30" as="geometry" />
        </mxCell>
        <mxCell id="pp-GfB8wKx1P4uPkhwiW-687" value="PK" style="shape=partialRectangle;connectable=1;fillColor=none;top=0;left=0;bottom=0;right=0;fontStyle=1;overflow=hidden;whiteSpace=wrap;enumerate=0;metaEdit=0;movable=1;resizable=1;rotatable=1;deletable=1;editable=1;locked=0;" vertex="1" parent="pp-GfB8wKx1P4uPkhwiW-686">
          <mxGeometry width="30" height="30" as="geometry">
            <mxRectangle width="30" height="30" as="alternateBounds" />
          </mxGeometry>
        </mxCell>
        <mxCell id="pp-GfB8wKx1P4uPkhwiW-688" value="dateID" style="shape=partialRectangle;connectable=1;fillColor=none;top=0;left=0;bottom=0;right=0;align=left;spacingLeft=6;fontStyle=5;overflow=hidden;whiteSpace=wrap;enumerate=0;metaEdit=0;movable=1;resizable=1;rotatable=1;deletable=1;editable=1;locked=0;" vertex="1" parent="pp-GfB8wKx1P4uPkhwiW-686">
          <mxGeometry x="30" width="130" height="30" as="geometry">
            <mxRectangle width="130" height="30" as="alternateBounds" />
          </mxGeometry>
        </mxCell>
        <mxCell id="pp-GfB8wKx1P4uPkhwiW-689" value="" style="shape=tableRow;horizontal=0;startSize=0;swimlaneHead=0;swimlaneBody=0;fillColor=none;collapsible=0;dropTarget=0;points=[[0,0.5],[1,0.5]];portConstraint=eastwest;top=0;left=0;right=0;bottom=0;enumerate=0;metaEdit=0;movable=1;resizable=1;rotatable=1;deletable=1;editable=1;locked=0;connectable=1;" vertex="1" parent="pp-GfB8wKx1P4uPkhwiW-685">
          <mxGeometry y="60" width="160" height="30" as="geometry" />
        </mxCell>
        <mxCell id="pp-GfB8wKx1P4uPkhwiW-690" value="" style="shape=partialRectangle;connectable=1;fillColor=none;top=0;left=0;bottom=0;right=0;editable=1;overflow=hidden;whiteSpace=wrap;enumerate=0;metaEdit=0;movable=1;resizable=1;rotatable=1;deletable=1;locked=0;" vertex="1" parent="pp-GfB8wKx1P4uPkhwiW-689">
          <mxGeometry width="30" height="30" as="geometry">
            <mxRectangle width="30" height="30" as="alternateBounds" />
          </mxGeometry>
        </mxCell>
        <mxCell id="pp-GfB8wKx1P4uPkhwiW-691" value="date" style="shape=partialRectangle;connectable=1;fillColor=none;top=0;left=0;bottom=0;right=0;align=left;spacingLeft=6;overflow=hidden;whiteSpace=wrap;enumerate=0;metaEdit=0;movable=1;resizable=1;rotatable=1;deletable=1;editable=1;locked=0;" vertex="1" parent="pp-GfB8wKx1P4uPkhwiW-689">
          <mxGeometry x="30" width="130" height="30" as="geometry">
            <mxRectangle width="130" height="30" as="alternateBounds" />
          </mxGeometry>
        </mxCell>
        <mxCell id="pp-GfB8wKx1P4uPkhwiW-692" value="" style="shape=tableRow;horizontal=0;startSize=0;swimlaneHead=0;swimlaneBody=0;fillColor=none;collapsible=0;dropTarget=0;points=[[0,0.5],[1,0.5]];portConstraint=eastwest;top=0;left=0;right=0;bottom=0;enumerate=0;metaEdit=0;movable=1;resizable=1;rotatable=1;deletable=1;editable=1;locked=0;connectable=1;" vertex="1" parent="pp-GfB8wKx1P4uPkhwiW-685">
          <mxGeometry y="90" width="160" height="30" as="geometry" />
        </mxCell>
        <mxCell id="pp-GfB8wKx1P4uPkhwiW-693" value="" style="shape=partialRectangle;connectable=1;fillColor=none;top=0;left=0;bottom=0;right=0;editable=1;overflow=hidden;whiteSpace=wrap;enumerate=0;metaEdit=0;movable=1;resizable=1;rotatable=1;deletable=1;locked=0;" vertex="1" parent="pp-GfB8wKx1P4uPkhwiW-692">
          <mxGeometry width="30" height="30" as="geometry">
            <mxRectangle width="30" height="30" as="alternateBounds" />
          </mxGeometry>
        </mxCell>
        <mxCell id="pp-GfB8wKx1P4uPkhwiW-694" value="day" style="shape=partialRectangle;connectable=1;fillColor=none;top=0;left=0;bottom=0;right=0;align=left;spacingLeft=6;overflow=hidden;whiteSpace=wrap;enumerate=0;metaEdit=0;movable=1;resizable=1;rotatable=1;deletable=1;editable=1;locked=0;" vertex="1" parent="pp-GfB8wKx1P4uPkhwiW-692">
          <mxGeometry x="30" width="130" height="30" as="geometry">
            <mxRectangle width="130" height="30" as="alternateBounds" />
          </mxGeometry>
        </mxCell>
        <mxCell id="pp-GfB8wKx1P4uPkhwiW-695" value="" style="shape=tableRow;horizontal=0;startSize=0;swimlaneHead=0;swimlaneBody=0;fillColor=none;collapsible=0;dropTarget=0;points=[[0,0.5],[1,0.5]];portConstraint=eastwest;top=0;left=0;right=0;bottom=0;enumerate=0;metaEdit=0;movable=1;resizable=1;rotatable=1;deletable=1;editable=1;locked=0;connectable=1;" vertex="1" parent="pp-GfB8wKx1P4uPkhwiW-685">
          <mxGeometry y="120" width="160" height="40" as="geometry" />
        </mxCell>
        <mxCell id="pp-GfB8wKx1P4uPkhwiW-696" value="" style="shape=partialRectangle;connectable=1;fillColor=none;top=0;left=0;bottom=0;right=0;editable=1;overflow=hidden;whiteSpace=wrap;enumerate=0;metaEdit=0;movable=1;resizable=1;rotatable=1;deletable=1;locked=0;" vertex="1" parent="pp-GfB8wKx1P4uPkhwiW-695">
          <mxGeometry width="30" height="40" as="geometry">
            <mxRectangle width="30" height="40" as="alternateBounds" />
          </mxGeometry>
        </mxCell>
        <mxCell id="pp-GfB8wKx1P4uPkhwiW-697" value="month" style="shape=partialRectangle;connectable=1;fillColor=none;top=0;left=0;bottom=0;right=0;align=left;spacingLeft=6;overflow=hidden;whiteSpace=wrap;enumerate=0;metaEdit=0;movable=1;resizable=1;rotatable=1;deletable=1;editable=1;locked=0;" vertex="1" parent="pp-GfB8wKx1P4uPkhwiW-695">
          <mxGeometry x="30" width="130" height="40" as="geometry">
            <mxRectangle width="130" height="40" as="alternateBounds" />
          </mxGeometry>
        </mxCell>
        <mxCell id="pp-GfB8wKx1P4uPkhwiW-698" value="" style="shape=tableRow;horizontal=0;startSize=0;swimlaneHead=0;swimlaneBody=0;fillColor=none;collapsible=0;dropTarget=0;points=[[0,0.5],[1,0.5]];portConstraint=eastwest;top=0;left=0;right=0;bottom=0;enumerate=0;metaEdit=0;movable=1;resizable=1;rotatable=1;deletable=1;editable=1;locked=0;connectable=1;" vertex="1" parent="pp-GfB8wKx1P4uPkhwiW-685">
          <mxGeometry y="160" width="160" height="40" as="geometry" />
        </mxCell>
        <mxCell id="pp-GfB8wKx1P4uPkhwiW-699" value="" style="shape=partialRectangle;connectable=1;fillColor=none;top=0;left=0;bottom=0;right=0;editable=1;overflow=hidden;whiteSpace=wrap;enumerate=0;metaEdit=0;movable=1;resizable=1;rotatable=1;deletable=1;locked=0;" vertex="1" parent="pp-GfB8wKx1P4uPkhwiW-698">
          <mxGeometry width="30" height="40" as="geometry">
            <mxRectangle width="30" height="40" as="alternateBounds" />
          </mxGeometry>
        </mxCell>
        <mxCell id="pp-GfB8wKx1P4uPkhwiW-700" value="year" style="shape=partialRectangle;connectable=1;fillColor=none;top=0;left=0;bottom=0;right=0;align=left;spacingLeft=6;overflow=hidden;whiteSpace=wrap;enumerate=0;metaEdit=0;movable=1;resizable=1;rotatable=1;deletable=1;editable=1;locked=0;" vertex="1" parent="pp-GfB8wKx1P4uPkhwiW-698">
          <mxGeometry x="30" width="130" height="40" as="geometry">
            <mxRectangle width="130" height="40" as="alternateBounds" />
          </mxGeometry>
        </mxCell>
        <mxCell id="pp-GfB8wKx1P4uPkhwiW-749" style="edgeStyle=orthogonalEdgeStyle;rounded=0;orthogonalLoop=1;jettySize=auto;html=1;entryX=0;entryY=0.25;entryDx=0;entryDy=0;" edge="1" parent="pp-GfB8wKx1P4uPkhwiW-635" source="pp-GfB8wKx1P4uPkhwiW-705" target="pp-GfB8wKx1P4uPkhwiW-687">
          <mxGeometry relative="1" as="geometry" />
        </mxCell>
        <mxCell id="pp-GfB8wKx1P4uPkhwiW-705" value="loan_fact_table" style="shape=table;startSize=40;container=1;collapsible=1;childLayout=tableLayout;fixedRows=1;rowLines=0;fontStyle=1;align=center;resizeLast=1;enumerate=0;metaEdit=0;movable=1;resizable=1;rotatable=1;deletable=1;editable=1;locked=0;connectable=1;" vertex="1" parent="pp-GfB8wKx1P4uPkhwiW-635">
          <mxGeometry x="300" y="340" width="220.00095238095219" height="222" as="geometry" />
        </mxCell>
        <mxCell id="pp-GfB8wKx1P4uPkhwiW-706" value="" style="shape=tableRow;horizontal=0;startSize=0;swimlaneHead=0;swimlaneBody=0;fillColor=none;collapsible=0;dropTarget=0;points=[[0,0.5],[1,0.5]];portConstraint=eastwest;top=0;left=0;right=0;bottom=1;enumerate=0;metaEdit=0;movable=1;resizable=1;rotatable=1;deletable=1;editable=1;locked=0;connectable=1;" vertex="1" parent="pp-GfB8wKx1P4uPkhwiW-705">
          <mxGeometry y="40" width="220.00095238095219" height="20" as="geometry" />
        </mxCell>
        <mxCell id="pp-GfB8wKx1P4uPkhwiW-707" value="PK, FK" style="shape=partialRectangle;connectable=1;fillColor=none;top=0;left=0;bottom=0;right=0;fontStyle=1;overflow=hidden;whiteSpace=wrap;enumerate=0;metaEdit=0;movable=1;resizable=1;rotatable=1;deletable=1;editable=1;locked=0;" vertex="1" parent="pp-GfB8wKx1P4uPkhwiW-706">
          <mxGeometry width="60.000952380952185" height="20" as="geometry">
            <mxRectangle width="60.000952380952185" height="20" as="alternateBounds" />
          </mxGeometry>
        </mxCell>
        <mxCell id="pp-GfB8wKx1P4uPkhwiW-708" value="loanID" style="shape=partialRectangle;connectable=1;fillColor=none;top=0;left=0;bottom=0;right=0;align=left;spacingLeft=6;fontStyle=5;overflow=hidden;whiteSpace=wrap;enumerate=0;metaEdit=0;movable=1;resizable=1;rotatable=1;deletable=1;editable=1;locked=0;" vertex="1" parent="pp-GfB8wKx1P4uPkhwiW-706">
          <mxGeometry x="60.000952380952185" width="160" height="20" as="geometry">
            <mxRectangle width="160" height="20" as="alternateBounds" />
          </mxGeometry>
        </mxCell>
        <mxCell id="pp-GfB8wKx1P4uPkhwiW-709" value="" style="shape=tableRow;horizontal=0;startSize=0;swimlaneHead=0;swimlaneBody=0;fillColor=none;collapsible=0;dropTarget=0;points=[[0,0.5],[1,0.5]];portConstraint=eastwest;top=0;left=0;right=0;bottom=0;enumerate=0;metaEdit=0;movable=1;resizable=1;rotatable=1;deletable=1;editable=1;locked=0;connectable=1;" vertex="1" parent="pp-GfB8wKx1P4uPkhwiW-705">
          <mxGeometry y="60" width="220.00095238095219" height="30" as="geometry" />
        </mxCell>
        <mxCell id="pp-GfB8wKx1P4uPkhwiW-710" value="PK, FK" style="shape=partialRectangle;connectable=1;fillColor=none;top=0;left=0;bottom=0;right=0;editable=1;overflow=hidden;whiteSpace=wrap;enumerate=0;metaEdit=0;movable=1;resizable=1;rotatable=1;deletable=1;locked=0;" vertex="1" parent="pp-GfB8wKx1P4uPkhwiW-709">
          <mxGeometry width="60.000952380952185" height="30" as="geometry">
            <mxRectangle width="60.000952380952185" height="30" as="alternateBounds" />
          </mxGeometry>
        </mxCell>
        <mxCell id="pp-GfB8wKx1P4uPkhwiW-711" value="customerID" style="shape=partialRectangle;connectable=1;fillColor=none;top=0;left=0;bottom=0;right=0;align=left;spacingLeft=6;overflow=hidden;whiteSpace=wrap;enumerate=0;metaEdit=0;movable=1;resizable=1;rotatable=1;deletable=1;editable=1;locked=0;" vertex="1" parent="pp-GfB8wKx1P4uPkhwiW-709">
          <mxGeometry x="60.000952380952185" width="160" height="30" as="geometry">
            <mxRectangle width="160" height="30" as="alternateBounds" />
          </mxGeometry>
        </mxCell>
        <mxCell id="pp-GfB8wKx1P4uPkhwiW-712" value="" style="shape=tableRow;horizontal=0;startSize=0;swimlaneHead=0;swimlaneBody=0;fillColor=none;collapsible=0;dropTarget=0;points=[[0,0.5],[1,0.5]];portConstraint=eastwest;top=0;left=0;right=0;bottom=0;enumerate=0;metaEdit=0;movable=1;resizable=1;rotatable=1;deletable=1;editable=1;locked=0;connectable=1;" vertex="1" parent="pp-GfB8wKx1P4uPkhwiW-705">
          <mxGeometry y="90" width="220.00095238095219" height="30" as="geometry" />
        </mxCell>
        <mxCell id="pp-GfB8wKx1P4uPkhwiW-713" value="PK, FK" style="shape=partialRectangle;connectable=1;fillColor=none;top=0;left=0;bottom=0;right=0;editable=1;overflow=hidden;whiteSpace=wrap;enumerate=0;metaEdit=0;movable=1;resizable=1;rotatable=1;deletable=1;locked=0;" vertex="1" parent="pp-GfB8wKx1P4uPkhwiW-712">
          <mxGeometry width="60.000952380952185" height="30" as="geometry">
            <mxRectangle width="60.000952380952185" height="30" as="alternateBounds" />
          </mxGeometry>
        </mxCell>
        <mxCell id="pp-GfB8wKx1P4uPkhwiW-714" value="startDate_ID" style="shape=partialRectangle;connectable=1;fillColor=none;top=0;left=0;bottom=0;right=0;align=left;spacingLeft=6;overflow=hidden;whiteSpace=wrap;enumerate=0;metaEdit=0;movable=1;resizable=1;rotatable=1;deletable=1;editable=1;locked=0;" vertex="1" parent="pp-GfB8wKx1P4uPkhwiW-712">
          <mxGeometry x="60.000952380952185" width="160" height="30" as="geometry">
            <mxRectangle width="160" height="30" as="alternateBounds" />
          </mxGeometry>
        </mxCell>
        <mxCell id="pp-GfB8wKx1P4uPkhwiW-715" value="" style="shape=tableRow;horizontal=0;startSize=0;swimlaneHead=0;swimlaneBody=0;fillColor=none;collapsible=0;dropTarget=0;points=[[0,0.5],[1,0.5]];portConstraint=eastwest;top=0;left=0;right=0;bottom=0;enumerate=0;metaEdit=0;movable=1;resizable=1;rotatable=1;deletable=1;editable=1;locked=0;connectable=1;" vertex="1" parent="pp-GfB8wKx1P4uPkhwiW-705">
          <mxGeometry y="120" width="220.00095238095219" height="40" as="geometry" />
        </mxCell>
        <mxCell id="pp-GfB8wKx1P4uPkhwiW-716" value="PK, FK" style="shape=partialRectangle;connectable=1;fillColor=none;top=0;left=0;bottom=0;right=0;editable=1;overflow=hidden;whiteSpace=wrap;enumerate=0;metaEdit=0;movable=1;resizable=1;rotatable=1;deletable=1;locked=0;" vertex="1" parent="pp-GfB8wKx1P4uPkhwiW-715">
          <mxGeometry width="60.000952380952185" height="40" as="geometry">
            <mxRectangle width="60.000952380952185" height="40" as="alternateBounds" />
          </mxGeometry>
        </mxCell>
        <mxCell id="pp-GfB8wKx1P4uPkhwiW-717" value="enddate_ID" style="shape=partialRectangle;connectable=1;fillColor=none;top=0;left=0;bottom=0;right=0;align=left;spacingLeft=6;overflow=hidden;whiteSpace=wrap;enumerate=0;metaEdit=0;movable=1;resizable=1;rotatable=1;deletable=1;editable=1;locked=0;" vertex="1" parent="pp-GfB8wKx1P4uPkhwiW-715">
          <mxGeometry x="60.000952380952185" width="160" height="40" as="geometry">
            <mxRectangle width="160" height="40" as="alternateBounds" />
          </mxGeometry>
        </mxCell>
        <mxCell id="pp-GfB8wKx1P4uPkhwiW-718" value="" style="shape=tableRow;horizontal=0;startSize=0;swimlaneHead=0;swimlaneBody=0;fillColor=none;collapsible=0;dropTarget=0;points=[[0,0.5],[1,0.5]];portConstraint=eastwest;top=0;left=0;right=0;bottom=0;enumerate=0;metaEdit=0;movable=1;resizable=1;rotatable=1;deletable=1;editable=1;locked=0;connectable=1;" vertex="1" parent="pp-GfB8wKx1P4uPkhwiW-705">
          <mxGeometry y="160" width="220.00095238095219" height="31" as="geometry" />
        </mxCell>
        <mxCell id="pp-GfB8wKx1P4uPkhwiW-719" value="" style="shape=partialRectangle;connectable=1;fillColor=none;top=0;left=0;bottom=0;right=0;editable=1;overflow=hidden;whiteSpace=wrap;enumerate=0;metaEdit=0;movable=1;resizable=1;rotatable=1;deletable=1;locked=0;" vertex="1" parent="pp-GfB8wKx1P4uPkhwiW-718">
          <mxGeometry width="60.000952380952185" height="31" as="geometry">
            <mxRectangle width="60.000952380952185" height="31" as="alternateBounds" />
          </mxGeometry>
        </mxCell>
        <mxCell id="pp-GfB8wKx1P4uPkhwiW-720" value="loanAmount" style="shape=partialRectangle;connectable=1;fillColor=none;top=0;left=0;bottom=0;right=0;align=left;spacingLeft=6;overflow=hidden;whiteSpace=wrap;enumerate=0;metaEdit=0;movable=1;resizable=1;rotatable=1;deletable=1;editable=1;locked=0;" vertex="1" parent="pp-GfB8wKx1P4uPkhwiW-718">
          <mxGeometry x="60.000952380952185" width="160" height="31" as="geometry">
            <mxRectangle width="160" height="31" as="alternateBounds" />
          </mxGeometry>
        </mxCell>
        <mxCell id="pp-GfB8wKx1P4uPkhwiW-743" value="" style="shape=tableRow;horizontal=0;startSize=0;swimlaneHead=0;swimlaneBody=0;fillColor=none;collapsible=0;dropTarget=0;points=[[0,0.5],[1,0.5]];portConstraint=eastwest;top=0;left=0;right=0;bottom=0;enumerate=0;metaEdit=0;movable=1;resizable=1;rotatable=1;deletable=1;editable=1;locked=0;connectable=1;" vertex="1" parent="pp-GfB8wKx1P4uPkhwiW-705">
          <mxGeometry y="191" width="220.00095238095219" height="31" as="geometry" />
        </mxCell>
        <mxCell id="pp-GfB8wKx1P4uPkhwiW-744" value="" style="shape=partialRectangle;connectable=1;fillColor=none;top=0;left=0;bottom=0;right=0;editable=1;overflow=hidden;whiteSpace=wrap;enumerate=0;metaEdit=0;movable=1;resizable=1;rotatable=1;deletable=1;locked=0;" vertex="1" parent="pp-GfB8wKx1P4uPkhwiW-743">
          <mxGeometry width="60.000952380952185" height="31" as="geometry">
            <mxRectangle width="60.000952380952185" height="31" as="alternateBounds" />
          </mxGeometry>
        </mxCell>
        <mxCell id="pp-GfB8wKx1P4uPkhwiW-745" value="interest" style="shape=partialRectangle;connectable=1;fillColor=none;top=0;left=0;bottom=0;right=0;align=left;spacingLeft=6;overflow=hidden;whiteSpace=wrap;enumerate=0;metaEdit=0;movable=1;resizable=1;rotatable=1;deletable=1;editable=1;locked=0;" vertex="1" parent="pp-GfB8wKx1P4uPkhwiW-743">
          <mxGeometry x="60.000952380952185" width="160" height="31" as="geometry">
            <mxRectangle width="160" height="31" as="alternateBounds" />
          </mxGeometry>
        </mxCell>
        <mxCell id="pp-GfB8wKx1P4uPkhwiW-747" style="edgeStyle=orthogonalEdgeStyle;rounded=0;orthogonalLoop=1;jettySize=auto;html=1;entryX=0;entryY=0;entryDx=0;entryDy=0;" edge="1" parent="pp-GfB8wKx1P4uPkhwiW-635" source="pp-GfB8wKx1P4uPkhwiW-708" target="pp-GfB8wKx1P4uPkhwiW-654">
          <mxGeometry relative="1" as="geometry" />
        </mxCell>
        <mxCell id="pp-GfB8wKx1P4uPkhwiW-748" style="edgeStyle=orthogonalEdgeStyle;rounded=0;orthogonalLoop=1;jettySize=auto;html=1;entryX=0;entryY=0.25;entryDx=0;entryDy=0;" edge="1" parent="pp-GfB8wKx1P4uPkhwiW-635" source="pp-GfB8wKx1P4uPkhwiW-672" target="pp-GfB8wKx1P4uPkhwiW-710">
          <mxGeometry relative="1" as="geometry" />
        </mxCell>
        <mxCell id="pp-GfB8wKx1P4uPkhwiW-750" style="edgeStyle=orthogonalEdgeStyle;rounded=0;orthogonalLoop=1;jettySize=auto;html=1;entryX=0;entryY=0.5;entryDx=0;entryDy=0;" edge="1" parent="pp-GfB8wKx1P4uPkhwiW-635" source="pp-GfB8wKx1P4uPkhwiW-717" target="pp-GfB8wKx1P4uPkhwiW-687">
          <mxGeometry relative="1" as="geometry" />
        </mxCell>
      </root>
    </mxGraphModel>
  </diagram>
</mxfile>
